<?xml version="1.0" encoding="utf-8"?>
<!-- Generator: Adobe Illustrator 16.0.0, SVG Export Plug-In . SVG Version: 6.00 Build 0)  -->
<!DOCTYPE svg PUBLIC "-//W3C//DTD SVG 1.1//EN" "http://www.w3.org/Graphics/SVG/1.1/DTD/svg11.dtd">
<svg version="1.1" id="图层_1" xmlns="http://www.w3.org/2000/svg" xmlns:xlink="http://www.w3.org/1999/xlink" x="0px" y="0px"
	 width="48px" height="48px" viewBox="0 0 48 48" enable-background="new 0 0 48 48" xml:space="preserve">
<path fill="#1ABC9C" d="M3.003,24c-0.001,11.596,9.398,20.998,20.994,21c11.596,0,20.998-9.398,20.999-20.995
	c0-0.001,0-0.003,0-0.005c0.002-11.596-9.397-20.998-20.994-21C12.406,3,3.005,12.399,3.003,23.995
	C3.003,23.997,3.003,23.999,3.003,24z"/>
<path fill="#FFFFFF" d="M34.65,21.538H13.303c-0.155,0-0.281,0.126-0.281,0.281c0,0.001,0,0.002,0,0.003v13.462
	c-0.002,0.154,0.123,0.282,0.278,0.284c0.001,0,0.002,0,0.003,0H34.65c0.156,0,0.281-0.126,0.281-0.281c0-0.001,0-0.003,0-0.003
	V21.823c0.002-0.155-0.122-0.283-0.277-0.285C34.653,21.538,34.652,21.538,34.65,21.538z M32.312,27.896
	c0,0.154-0.126,0.281-0.281,0.281H15.923c-0.155,0-0.281-0.127-0.281-0.281v-3.891c0-0.155,0.126-0.281,0.281-0.281h16.108
	c0.155,0,0.281,0.126,0.281,0.281L32.312,27.896z"/>
<path fill="#FFFFFF" d="M34.19,12.431H14.113c-0.116,0-0.22,0.071-0.262,0.179c-0.445,1.159-2.889,6.806-2.889,8.549
	c0,1.8,1.459,3.259,3.259,3.259s3.259-1.459,3.259-3.259c0-0.044,0-0.088-0.002-0.131h0.011c-0.004,0.068-0.007,0.136-0.007,0.204
	c-0.031,1.8,1.402,3.285,3.202,3.316c1.799,0.031,3.284-1.402,3.315-3.202c0-0.037,0-0.074,0-0.11c0-0.068-0.002-0.136-0.006-0.204
	h0.013C24.002,21.098,24,21.167,24,21.234c0,1.8,1.459,3.259,3.26,3.259c1.8,0,3.26-1.459,3.26-3.259
	c0-0.068-0.003-0.136-0.008-0.204h0.012c-0.003,0.056-0.004,0.111-0.004,0.167c0,1.8,1.459,3.26,3.259,3.26s3.259-1.459,3.259-3.26
	c0-0.946-2.176-7.383-2.582-8.575C34.417,12.508,34.311,12.432,34.19,12.431L34.19,12.431z"/>
</svg>
