<?xml version="1.0" encoding="utf-8"?>
<!-- Generator: Adobe Illustrator 16.0.0, SVG Export Plug-In . SVG Version: 6.00 Build 0)  -->
<!DOCTYPE svg PUBLIC "-//W3C//DTD SVG 1.1//EN" "http://www.w3.org/Graphics/SVG/1.1/DTD/svg11.dtd">
<svg version="1.1" id="图层_1" xmlns="http://www.w3.org/2000/svg" xmlns:xlink="http://www.w3.org/1999/xlink" x="0px" y="0px"
	 width="64px" height="64px" viewBox="0 0 64 64" enable-background="new 0 0 64 64" xml:space="preserve">
<path fill="#1ABC9C" d="M4.004,32C4.002,47.461,16.535,59.997,31.997,59.999s27.998-12.53,28-27.992c0-0.002,0-0.004,0-0.007
	C59.998,16.539,47.465,4.003,32.003,4.001S4.006,16.532,4.004,31.993C4.004,31.996,4.004,31.998,4.004,32z"/>
<path fill="#FFFFFF" d="M46.201,28.717H17.737c-0.207,0-0.375,0.168-0.375,0.375c0,0.001,0,0.003,0,0.004v17.95
	c-0.002,0.207,0.164,0.377,0.371,0.379c0.001,0,0.003,0,0.004,0h28.464c0.207,0,0.375-0.168,0.375-0.375c0-0.002,0-0.003,0-0.004
	v-17.95c0.002-0.207-0.164-0.376-0.371-0.379C46.204,28.717,46.203,28.717,46.201,28.717z M43.082,37.194
	c0,0.207-0.168,0.375-0.375,0.375H21.23c-0.207,0-0.375-0.168-0.375-0.375v-5.188c0-0.207,0.168-0.375,0.375-0.375h21.478
	c0.207,0,0.375,0.168,0.375,0.375L43.082,37.194z"/>
<path fill="#FFFFFF" d="M45.588,16.574H18.817c-0.154,0-0.292,0.095-0.349,0.238c-0.594,1.545-3.853,9.075-3.853,11.399
	c0,2.4,1.946,4.345,4.346,4.345c2.4,0,4.346-1.945,4.346-4.345c0-0.059,0-0.117-0.004-0.175h0.015
	c-0.006,0.091-0.009,0.181-0.009,0.272c-0.042,2.399,1.87,4.379,4.269,4.42c2.4,0.043,4.379-1.869,4.421-4.269
	c0.001-0.049,0.001-0.098,0-0.147c0-0.091-0.003-0.182-0.009-0.272h0.018C32.003,28.131,32,28.222,32,28.313
	c0,2.4,1.945,4.346,4.346,4.346s4.346-1.945,4.346-4.346c0-0.091-0.002-0.182-0.008-0.272h0.014
	c-0.004,0.074-0.006,0.148-0.006,0.223c0,2.4,1.946,4.346,4.346,4.346c2.4,0,4.347-1.945,4.347-4.346
	c0-1.261-2.901-9.844-3.443-11.434C45.89,16.678,45.748,16.575,45.588,16.574z"/>
</svg>
