<?xml version="1.0" encoding="utf-8"?>
<!-- Generator: Adobe Illustrator 16.0.0, SVG Export Plug-In . SVG Version: 6.00 Build 0)  -->
<!DOCTYPE svg PUBLIC "-//W3C//DTD SVG 1.1//EN" "http://www.w3.org/Graphics/SVG/1.1/DTD/svg11.dtd">
<svg version="1.1" id="图层_1" xmlns="http://www.w3.org/2000/svg" xmlns:xlink="http://www.w3.org/1999/xlink" x="0px" y="0px"
	 width="32px" height="32px" viewBox="0 0 32 32" enable-background="new 0 0 32 32" xml:space="preserve">
<path fill="#1ABC9C" d="M2.002,16c0,7.73,6.266,13.998,13.997,14c7.73,0,13.999-6.266,14-13.997c0-0.001,0-0.002,0-0.003
	c0-7.731-6.266-13.999-13.997-14C8.271,2,2.003,8.266,2.002,15.997C2.002,15.998,2.002,15.999,2.002,16z"/>
<path fill="#FFFFFF" d="M23.101,14.359H8.869c-0.104,0-0.188,0.084-0.188,0.188c0,0,0,0.001,0,0.002v8.975
	c-0.001,0.104,0.082,0.188,0.186,0.189c0,0,0.001,0,0.002,0h14.232c0.104,0,0.188-0.084,0.188-0.188c0-0.001,0-0.002,0-0.002v-8.975
	c0.001-0.104-0.081-0.188-0.185-0.189C23.102,14.359,23.102,14.359,23.101,14.359z M21.541,18.598c0,0.104-0.084,0.188-0.188,0.188
	H10.615c-0.104,0-0.188-0.084-0.188-0.188v-2.594c0-0.104,0.084-0.188,0.188-0.188h10.738c0.104,0,0.188,0.084,0.188,0.188V18.598z"
	/>
<path fill="#FFFFFF" d="M22.794,8.287H9.409c-0.077,0-0.146,0.047-0.174,0.119c-0.297,0.773-1.926,4.538-1.926,5.699
	c0,1.2,0.973,2.173,2.173,2.173s2.173-0.973,2.173-2.173c0-0.029,0-0.058-0.002-0.087h0.007c-0.002,0.045-0.004,0.091-0.004,0.136
	c-0.021,1.2,0.935,2.189,2.135,2.21S15.979,15.43,16,14.23c0-0.024,0-0.049,0-0.074c0-0.045-0.001-0.091-0.004-0.136h0.009
	C16.001,14.065,16,14.111,16,14.156c0,1.2,0.973,2.173,2.173,2.173s2.173-0.973,2.173-2.173c0-0.045-0.002-0.091-0.004-0.136h0.007
	c-0.002,0.037-0.003,0.074-0.003,0.111c0,1.2,0.973,2.173,2.174,2.173c1.199,0,2.172-0.973,2.172-2.173
	c0-0.63-1.451-4.922-1.721-5.717C22.945,8.339,22.874,8.288,22.794,8.287z"/>
</svg>
