<?xml version="1.0" encoding="utf-8"?>
<!-- Generator: Adobe Illustrator 16.0.0, SVG Export Plug-In . SVG Version: 6.00 Build 0)  -->
<!DOCTYPE svg PUBLIC "-//W3C//DTD SVG 1.1//EN" "http://www.w3.org/Graphics/SVG/1.1/DTD/svg11.dtd">
<svg version="1.1" id="图层_1" xmlns="http://www.w3.org/2000/svg" xmlns:xlink="http://www.w3.org/1999/xlink" x="0px" y="0px"
	 width="32px" height="32px" viewBox="0 0 32 32" enable-background="new 0 0 32 32" xml:space="preserve">
<path fill="#1ABC9C" d="M23.99,11.788c-0.043-0.291-0.215-0.556-0.487-0.712L16.51,7.038c-0.26-0.15-0.56-0.169-0.825-0.082
	c-0.069,0.022-0.135,0.05-0.197,0.088l-6.984,4.031c-0.153,0.087-0.275,0.212-0.359,0.353l-0.009,0.019
	c-0.003,0.003-0.006,0.009-0.006,0.013C8.047,11.603,8,11.772,8,11.947v8.36c0,0.094,0.013,0.184,0.038,0.271
	c0.065,0.25,0.225,0.475,0.469,0.615l6.997,4.041c0.169,0.115,0.366,0.175,0.569,0.175s0.4-0.06,0.569-0.175l6.847-3.953
	c0.3-0.175,0.479-0.479,0.497-0.803c0.01-0.06,0.016-0.119,0.016-0.182v-8.35c0-0.041-0.003-0.081-0.006-0.122
	c0-0.003,0-0.01-0.004-0.013C23.994,11.803,23.99,11.797,23.99,11.788z M15.69,23.034L10,19.75v-6.806l5.69,3.284V23.034z
	 M22.003,19.831l-5.688,3.284v-6.847l3-1.731c0.007,0.006,0.016,0.012,0.022,0.019c0.188,0.138,0.406,0.209,0.634,0.209
	c0.054,0,0.106-0.003,0.159-0.013c0.281-0.041,0.531-0.19,0.703-0.422c0.169-0.231,0.241-0.512,0.197-0.793
	c-0.025-0.172-0.185-0.288-0.356-0.263s-0.287,0.185-0.263,0.356c0.02,0.119-0.012,0.234-0.081,0.331
	c-0.071,0.097-0.175,0.16-0.294,0.175c-0.118,0.019-0.234-0.013-0.331-0.082c-0.097-0.072-0.159-0.175-0.175-0.293
	c-0.037-0.244,0.131-0.469,0.375-0.506c0.172-0.025,0.287-0.185,0.263-0.356c-0.025-0.172-0.185-0.288-0.356-0.262
	c-0.584,0.087-0.987,0.634-0.9,1.215c0.01,0.06,0.022,0.116,0.041,0.169l-2.919,1.684l-5.775-3.334l5.744-3.316L22,12.519v7.313
	H22.003z"/>
<path fill="#1ABC9C" d="M27.354,7.781c-0.359-0.497-1.082-0.553-1.516-0.119c-0.348,0.347-0.391,0.897-0.104,1.293
	c0.528,0.731,0.972,1.519,1.325,2.359c0.625,1.484,0.943,3.06,0.943,4.685s-0.318,3.203-0.943,4.685
	c-0.606,1.435-1.472,2.722-2.575,3.825c-1.104,1.105-2.388,1.972-3.815,2.578c-1.479,0.628-3.05,0.943-4.669,0.943
	c-1.619,0-3.19-0.313-4.669-0.94c-1.428-0.606-2.712-1.476-3.815-2.578c-1.103-1.106-1.969-2.394-2.575-3.825
	c-0.625-1.484-0.943-3.06-0.943-4.685S4.315,12.8,4.94,11.319c0.606-1.435,1.472-2.722,2.575-3.825
	c1.103-1.106,2.388-1.972,3.815-2.578C12.81,4.288,14.381,3.972,16,3.972c1.619,0,3.19,0.319,4.669,0.944
	c0.881,0.372,1.706,0.847,2.469,1.413c0.396,0.297,0.953,0.256,1.303-0.094c0.432-0.431,0.378-1.144-0.109-1.509
	C22.003,2.987,19.122,1.966,16,1.966C8.266,1.966,1.997,8.247,1.997,16S8.266,30.034,16,30.034S30.003,23.753,30.003,16
	C30.003,12.931,29.019,10.091,27.354,7.781z"/>
</svg>
