<?xml version="1.0" encoding="utf-8"?>
<!-- Generator: Adobe Illustrator 16.0.0, SVG Export Plug-In . SVG Version: 6.00 Build 0)  -->
<!DOCTYPE svg PUBLIC "-//W3C//DTD SVG 1.1//EN" "http://www.w3.org/Graphics/SVG/1.1/DTD/svg11.dtd">
<svg version="1.1" id="图层_1" xmlns="http://www.w3.org/2000/svg" xmlns:xlink="http://www.w3.org/1999/xlink" x="0px" y="0px"
	 width="48px" height="48px" viewBox="0 0 48 48" enable-background="new 0 0 48 48" xml:space="preserve">
<path fill="#1ABC9C" d="M35.986,17.681c-0.066-0.436-0.324-0.834-0.731-1.069l-10.491-6.056c-0.389-0.225-0.839-0.253-1.237-0.122
	c-0.103,0.033-0.201,0.075-0.295,0.131l-10.477,6.047c-0.23,0.131-0.413,0.319-0.539,0.53l-0.014,0.028
	c-0.005,0.004-0.009,0.014-0.009,0.019C12.07,17.405,12,17.658,12,17.92v12.539c0,0.141,0.019,0.277,0.056,0.408
	c0.099,0.375,0.337,0.713,0.703,0.924l10.496,6.061c0.253,0.174,0.548,0.263,0.853,0.263s0.6-0.089,0.853-0.263l10.271-5.93
	c0.45-0.263,0.717-0.717,0.745-1.205C35.99,30.628,36,30.539,36,30.445V17.92c0-0.061-0.005-0.122-0.01-0.183
	c0-0.004,0-0.014-0.004-0.019C35.99,17.705,35.986,17.695,35.986,17.681z M23.536,34.552L15,29.625V19.416l8.536,4.927V34.552z
	 M33.005,29.747l-8.531,4.927V24.403l4.5-2.597c0.009,0.009,0.023,0.019,0.032,0.028c0.281,0.206,0.609,0.314,0.952,0.314
	c0.079,0,0.159-0.005,0.239-0.019c0.422-0.061,0.797-0.286,1.055-0.633c0.253-0.347,0.36-0.769,0.295-1.191
	c-0.037-0.258-0.276-0.431-0.534-0.394s-0.432,0.276-0.394,0.534c0.027,0.178-0.02,0.352-0.122,0.497
	c-0.108,0.145-0.263,0.239-0.44,0.262c-0.179,0.028-0.352-0.019-0.497-0.122c-0.146-0.108-0.239-0.263-0.263-0.441
	c-0.057-0.365,0.197-0.703,0.563-0.759c0.258-0.038,0.432-0.276,0.394-0.534c-0.037-0.258-0.276-0.431-0.534-0.394
	c-0.877,0.131-1.481,0.952-1.35,1.824c0.014,0.089,0.032,0.173,0.061,0.253l-4.378,2.527l-8.663-5.002l8.616-4.973L33,18.778v10.969
	H33.005z"/>
<path fill="#1ABC9C" d="M41.029,11.672c-0.539-0.745-1.621-0.83-2.273-0.178c-0.52,0.521-0.586,1.345-0.154,1.941
	c0.792,1.097,1.458,2.278,1.987,3.539c0.938,2.227,1.416,4.589,1.416,7.026s-0.479,4.805-1.416,7.026
	c-0.909,2.151-2.208,4.083-3.862,5.737c-1.654,1.66-3.581,2.958-5.724,3.867c-2.217,0.942-4.575,1.416-7.003,1.416
	c-2.428,0-4.786-0.469-7.003-1.411c-2.143-0.909-4.069-2.212-5.724-3.867c-1.655-1.659-2.953-3.591-3.862-5.737
	c-0.938-2.227-1.416-4.589-1.416-7.026s0.479-4.805,1.416-7.027c0.909-2.151,2.208-4.083,3.862-5.737
	c1.655-1.66,3.581-2.958,5.724-3.867C19.214,6.431,21.572,5.958,24,5.958c2.428,0,4.786,0.478,7.003,1.416
	c1.322,0.558,2.56,1.27,3.703,2.119c0.596,0.445,1.43,0.384,1.955-0.141c0.646-0.647,0.567-1.716-0.164-2.264
	C33.005,4.481,28.683,2.948,24,2.948C12.398,2.948,2.995,12.37,2.995,24S12.398,45.052,24,45.052S45.005,35.63,45.005,24
	C45.005,19.397,43.528,15.136,41.029,11.672z"/>
</svg>
