<?xml version="1.0" encoding="utf-8"?>
<!-- Generator: Adobe Illustrator 16.0.0, SVG Export Plug-In . SVG Version: 6.00 Build 0)  -->
<!DOCTYPE svg PUBLIC "-//W3C//DTD SVG 1.1//EN" "http://www.w3.org/Graphics/SVG/1.1/DTD/svg11.dtd">
<svg version="1.1" id="图层_1" xmlns="http://www.w3.org/2000/svg" xmlns:xlink="http://www.w3.org/1999/xlink" x="0px" y="0px"
	 width="64px" height="64px" viewBox="0 0 64 64" enable-background="new 0 0 64 64" xml:space="preserve">
<path fill="#1ABC9C" d="M47.981,23.575c-0.088-0.582-0.432-1.113-0.976-1.425l-13.987-8.075c-0.519-0.3-1.119-0.338-1.65-0.163
	c-0.137,0.043-0.269,0.1-0.394,0.175L17.006,22.15c-0.306,0.175-0.55,0.425-0.719,0.707l-0.019,0.037
	c-0.006,0.006-0.012,0.019-0.012,0.025C16.094,23.206,16,23.544,16,23.894v16.719c0,0.188,0.025,0.369,0.075,0.544
	c0.131,0.5,0.45,0.95,0.938,1.231l13.994,8.081c0.337,0.231,0.731,0.35,1.137,0.35s0.8-0.118,1.138-0.35l13.693-7.906
	c0.601-0.35,0.957-0.956,0.994-1.606C47.987,40.838,48,40.719,48,40.594v-16.7c0-0.081-0.006-0.162-0.013-0.244
	c0-0.006,0-0.019-0.006-0.025C47.987,23.606,47.981,23.594,47.981,23.575z M31.381,46.068L20,39.5V25.888l11.381,6.568V46.068z
	 M44.006,39.662l-11.375,6.569V32.537l6-3.462c0.013,0.012,0.031,0.025,0.044,0.037c0.375,0.275,0.813,0.419,1.269,0.419
	c0.106,0,0.213-0.006,0.319-0.025c0.563-0.082,1.063-0.381,1.406-0.844c0.337-0.462,0.481-1.025,0.394-1.587
	c-0.05-0.344-0.369-0.575-0.713-0.525c-0.344,0.05-0.574,0.369-0.524,0.713c0.037,0.237-0.025,0.469-0.163,0.662
	c-0.144,0.194-0.35,0.319-0.587,0.35c-0.237,0.038-0.469-0.025-0.663-0.163c-0.193-0.144-0.318-0.35-0.35-0.587
	c-0.075-0.487,0.263-0.938,0.75-1.012c0.344-0.05,0.575-0.369,0.525-0.713c-0.051-0.344-0.369-0.575-0.713-0.525
	c-1.169,0.175-1.975,1.269-1.8,2.431c0.019,0.119,0.044,0.231,0.081,0.338l-5.837,3.369l-11.55-6.669l11.488-6.631L44,25.038v14.625
	H44.006z"/>
<path fill="#1ABC9C" d="M54.706,15.563c-0.719-0.994-2.162-1.106-3.031-0.237c-0.693,0.693-0.781,1.793-0.206,2.587
	c1.057,1.462,1.943,3.038,2.65,4.719c1.25,2.969,1.887,6.119,1.887,9.369s-0.637,6.406-1.887,9.369
	c-1.213,2.868-2.944,5.443-5.15,7.649c-2.206,2.213-4.775,3.944-7.631,5.156c-2.957,1.257-6.101,1.888-9.338,1.888
	s-6.381-0.625-9.337-1.881c-2.856-1.213-5.425-2.95-7.631-5.156c-2.206-2.213-3.938-4.788-5.15-7.65
	c-1.25-2.969-1.888-6.119-1.888-9.369c0-3.25,0.638-6.406,1.888-9.369c1.212-2.869,2.944-5.444,5.15-7.65
	c2.206-2.212,4.775-3.943,7.631-5.156c2.956-1.256,6.1-1.887,9.337-1.887s6.381,0.637,9.338,1.887
	c1.762,0.744,3.412,1.694,4.938,2.825c0.793,0.594,1.906,0.513,2.605-0.188c0.863-0.862,0.757-2.288-0.219-3.019
	C44.006,5.975,38.244,3.931,32,3.931C16.531,3.931,3.994,16.494,3.994,32c0,15.506,12.538,28.068,28.006,28.068
	S60.006,47.506,60.006,32C60.006,25.862,58.037,20.181,54.706,15.563z"/>
</svg>
