<?xml version="1.0" encoding="utf-8"?>
<!-- Generator: Adobe Illustrator 16.0.0, SVG Export Plug-In . SVG Version: 6.00 Build 0)  -->
<!DOCTYPE svg PUBLIC "-//W3C//DTD SVG 1.1//EN" "http://www.w3.org/Graphics/SVG/1.1/DTD/svg11.dtd">
<svg version="1.1" id="图层_1" xmlns="http://www.w3.org/2000/svg" xmlns:xlink="http://www.w3.org/1999/xlink" x="0px" y="0px"
	 width="64px" height="64px" viewBox="0 0 64 64" enable-background="new 0 0 64 64" xml:space="preserve">
<path fill="#1ABC9C" d="M4,32.125c0,15.464,12.536,28,28,28s28-12.536,28-28s-12.536-28-28-28S4,16.661,4,32.125z"/>
<path fill="#FFFFFF" d="M45.279,19.14h-9.4c-0.199,0-0.365-0.149-0.388-0.346c-0.216-1.928-1.954-3.316-3.883-3.1
	c-1.63,0.183-2.917,1.47-3.1,3.1c-0.022,0.197-0.189,0.346-0.388,0.346H18.72c-0.216,0-0.391,0.175-0.391,0.391v5.077
	c0,0.216,0.175,0.391,0.391,0.391l0,0h26.563c0.215,0,0.391-0.175,0.391-0.391l0,0v-5.077c0-0.216-0.176-0.391-0.391-0.391
	C45.281,19.14,45.281,19.14,45.279,19.14z"/>
<path fill="#FFFFFF" d="M42.591,24.804H21.409c-0.215,0-0.391,0.175-0.391,0.391l0,0V48.58c0,0.216,0.175,0.391,0.391,0.391h21.182
	c0.216,0,0.391-0.175,0.391-0.391V25.194C42.981,24.979,42.807,24.804,42.591,24.804L42.591,24.804z M27.484,43.844
	c0,0.217-0.175,0.391-0.391,0.391l0,0h-1.171c-0.216,0-0.391-0.174-0.391-0.391l0,0V29.833c0-0.216,0.175-0.391,0.391-0.391l0,0
	h1.172c0.216,0,0.391,0.175,0.391,0.391l0,0L27.484,43.844z M32.977,43.844c0,0.217-0.176,0.391-0.391,0.391l0,0h-1.171
	c-0.216,0-0.391-0.174-0.391-0.391l0,0V29.833c0-0.216,0.175-0.391,0.391-0.391l0,0h1.171c0.216,0,0.391,0.175,0.391,0.391l0,0
	V43.844z M38.469,43.844c0,0.217-0.175,0.391-0.391,0.391l0,0h-1.172c-0.215,0-0.391-0.174-0.391-0.391l0,0V29.833
	c0-0.216,0.176-0.391,0.391-0.391l0,0h1.172c0.217,0,0.391,0.175,0.391,0.391l0,0V43.844z"/>
</svg>
