<?xml version="1.0" encoding="utf-8"?>
<!-- Generator: Adobe Illustrator 16.0.0, SVG Export Plug-In . SVG Version: 6.00 Build 0)  -->
<!DOCTYPE svg PUBLIC "-//W3C//DTD SVG 1.1//EN" "http://www.w3.org/Graphics/SVG/1.1/DTD/svg11.dtd">
<svg version="1.1" id="图层_1" xmlns="http://www.w3.org/2000/svg" xmlns:xlink="http://www.w3.org/1999/xlink" x="0px" y="0px"
	 width="32px" height="32px" viewBox="0 0 32 32" enable-background="new 0 0 32 32" xml:space="preserve">
<path fill="#1ABC9C" d="M2,16.063c0,7.732,6.268,14,14,14c7.732,0,14-6.268,14-14c0-7.732-6.268-14-14-14
	C8.268,2.063,2,8.331,2,16.063z"/>
<path fill="#FFFFFF" d="M22.641,9.57h-4.701c-0.1,0-0.183-0.074-0.193-0.173c-0.108-0.964-0.978-1.658-1.942-1.55
	c-0.815,0.091-1.458,0.734-1.55,1.55C14.243,9.496,14.16,9.57,14.061,9.57H9.36c-0.108,0-0.195,0.088-0.195,0.195v2.539
	c0,0.108,0.087,0.195,0.195,0.195l0,0h13.281c0.108,0,0.195-0.087,0.195-0.195l0,0V9.765C22.836,9.658,22.749,9.57,22.641,9.57
	L22.641,9.57z"/>
<path fill="#FFFFFF" d="M21.295,12.402h-10.59c-0.108,0-0.195,0.087-0.195,0.195l0,0V24.29c0,0.108,0.087,0.195,0.195,0.195h10.59
	c0.108,0,0.195-0.087,0.195-0.195V12.597C21.49,12.489,21.403,12.402,21.295,12.402L21.295,12.402z M13.742,21.922
	c0,0.107-0.087,0.195-0.195,0.195l0,0h-0.585c-0.108,0-0.195-0.088-0.195-0.195l0,0v-7.005c0-0.108,0.087-0.195,0.195-0.195l0,0
	h0.586c0.108,0,0.195,0.087,0.195,0.195l0,0L13.742,21.922z M16.488,21.922c0,0.107-0.087,0.195-0.195,0.195l0,0h-0.586
	c-0.108,0-0.195-0.088-0.195-0.195l0,0v-7.005c0-0.108,0.087-0.195,0.195-0.195l0,0h0.586c0.108,0,0.195,0.087,0.195,0.195l0,0
	V21.922z M19.234,21.922c0,0.107-0.088,0.195-0.195,0.195l0,0h-0.586c-0.107,0-0.195-0.088-0.195-0.195l0,0v-7.005
	c0-0.108,0.088-0.195,0.195-0.195l0,0h0.586c0.108,0,0.195,0.087,0.195,0.195l0,0V21.922z"/>
</svg>
