<?xml version="1.0" encoding="utf-8"?>
<!-- Generator: Adobe Illustrator 16.0.0, SVG Export Plug-In . SVG Version: 6.00 Build 0)  -->
<!DOCTYPE svg PUBLIC "-//W3C//DTD SVG 1.1//EN" "http://www.w3.org/Graphics/SVG/1.1/DTD/svg11.dtd">
<svg version="1.1" id="图层_1" xmlns="http://www.w3.org/2000/svg" xmlns:xlink="http://www.w3.org/1999/xlink" x="0px" y="0px"
	 width="48px" height="48px" viewBox="0 0 48 48" enable-background="new 0 0 48 48" xml:space="preserve">
<path fill="#1ABC9C" d="M3,24.094c0,11.598,9.402,21,21,21c11.598,0,21-9.402,21-21c0-11.598-9.402-21-21-21
	C12.402,3.094,3,12.496,3,24.094z"/>
<path fill="#FFFFFF" d="M33.96,14.355h-7.051c-0.149,0-0.274-0.112-0.29-0.26c-0.162-1.446-1.467-2.487-2.913-2.325
	c-1.223,0.137-2.188,1.102-2.325,2.325c-0.017,0.148-0.142,0.26-0.291,0.26H14.04c-0.162,0-0.293,0.131-0.293,0.293v3.808
	c0,0.162,0.131,0.293,0.293,0.293l0,0h19.922c0.161,0,0.293-0.131,0.293-0.293l0,0v-3.808c0-0.162-0.132-0.293-0.293-0.293
	C33.961,14.355,33.961,14.355,33.96,14.355L33.96,14.355z"/>
<path fill="#FFFFFF" d="M31.943,18.603H16.057c-0.162,0-0.293,0.131-0.293,0.293l0,0v17.54c0,0.161,0.131,0.293,0.293,0.293h15.886
	c0.162,0,0.293-0.132,0.293-0.293v-17.54C32.236,18.734,32.105,18.603,31.943,18.603L31.943,18.603z M20.613,32.883
	c0,0.162-0.131,0.293-0.293,0.293l0,0h-0.878c-0.162,0-0.293-0.131-0.293-0.293l0,0V22.375c0-0.162,0.131-0.293,0.293-0.293l0,0
	h0.879c0.162,0,0.293,0.131,0.293,0.293l0,0L20.613,32.883z M24.732,32.883c0,0.162-0.131,0.293-0.293,0.293l0,0h-0.879
	c-0.162,0-0.293-0.131-0.293-0.293l0,0V22.375c0-0.162,0.131-0.293,0.293-0.293l0,0h0.879c0.162,0,0.293,0.131,0.293,0.293l0,0
	V32.883z M28.852,32.883c0,0.162-0.131,0.293-0.293,0.293l0,0H27.68c-0.161,0-0.293-0.131-0.293-0.293l0,0V22.375
	c0-0.162,0.132-0.293,0.293-0.293l0,0h0.879c0.162,0,0.293,0.131,0.293,0.293l0,0V32.883z"/>
</svg>
