<?xml version="1.0" encoding="utf-8"?>
<!-- Generator: Adobe Illustrator 16.0.0, SVG Export Plug-In . SVG Version: 6.00 Build 0)  -->
<!DOCTYPE svg PUBLIC "-//W3C//DTD SVG 1.1//EN" "http://www.w3.org/Graphics/SVG/1.1/DTD/svg11.dtd">
<svg version="1.1" id="图层_1" xmlns="http://www.w3.org/2000/svg" xmlns:xlink="http://www.w3.org/1999/xlink" x="0px" y="0px"
	 width="48px" height="48px" viewBox="0 0 48 48" enable-background="new 0 0 48 48" xml:space="preserve">
<path fill="#1ABC9C" d="M3.003,24c-0.001,11.596,9.398,20.998,20.994,21c11.596,0,20.998-9.398,20.999-20.995
	c0-0.001,0-0.003,0-0.005c0.002-11.596-9.397-20.998-20.994-21C12.406,3,3.005,12.399,3.003,23.995
	C3.003,23.997,3.003,23.999,3.003,24z"/>
<path fill="#FFFFFF" d="M30.419,29.391c-0.579,0-1.048,0.469-1.048,1.048s0.469,1.048,1.048,1.048s1.048-0.469,1.048-1.048l0,0
	C31.466,29.859,30.998,29.392,30.419,29.391z"/>
<path fill="#FFFFFF" d="M14.02,26.48v6.141c0,0.383,0.31,0.691,0.692,0.691l0,0h18.576c0.382,0,0.692-0.309,0.692-0.691l0,0V26.48
	H14.02z M17.583,31.902c-0.808,0-1.463-0.656-1.463-1.463c0-0.809,0.655-1.464,1.463-1.464c0.808,0,1.463,0.655,1.463,1.464
	c-0.001,0.808-0.656,1.463-1.464,1.463H17.583z M30.42,31.902c-0.809,0-1.463-0.656-1.463-1.463c0-0.809,0.654-1.464,1.463-1.464
	s1.463,0.655,1.463,1.464C31.883,31.246,31.227,31.901,30.42,31.902L30.42,31.902z"/>
<path fill="#FFFFFF" d="M17.581,29.391c-0.579,0-1.048,0.469-1.048,1.048s0.469,1.048,1.048,1.048s1.047-0.469,1.047-1.048l0,0
	C18.628,29.859,18.159,29.392,17.581,29.391z"/>
<path fill="#FFFFFF" d="M33.288,12.851H14.712c-0.382,0-0.692,0.31-0.692,0.692l0,0v12.954h19.96V13.542
	C33.98,13.161,33.67,12.851,33.288,12.851L33.288,12.851z M32.25,24.398c0,0.279-0.227,0.507-0.507,0.507H16.256
	c-0.28-0.001-0.506-0.228-0.506-0.507v-8.915c0-0.28,0.227-0.507,0.507-0.507h15.487c0.279,0,0.506,0.227,0.506,0.507V24.398z
	 M15.897,33.623v1.418c0,0.936,0.759,1.695,1.695,1.695s1.695-0.76,1.695-1.695v-1.418H15.897z M28.801,33.623v1.418
	c0,0.936,0.759,1.695,1.695,1.695c0.936,0,1.694-0.76,1.694-1.695v-1.418H28.801z"/>
</svg>
