<?xml version="1.0" encoding="utf-8"?>
<!-- Generator: Adobe Illustrator 16.0.0, SVG Export Plug-In . SVG Version: 6.00 Build 0)  -->
<!DOCTYPE svg PUBLIC "-//W3C//DTD SVG 1.1//EN" "http://www.w3.org/Graphics/SVG/1.1/DTD/svg11.dtd">
<svg version="1.1" id="图层_1" xmlns="http://www.w3.org/2000/svg" xmlns:xlink="http://www.w3.org/1999/xlink" x="0px" y="0px"
	 width="32px" height="32px" viewBox="0 0 32 32" enable-background="new 0 0 32 32" xml:space="preserve">
<path fill="#1ABC9C" d="M2.002,16c0,7.73,6.266,13.998,13.997,14c7.73,0,13.999-6.266,14-13.997c0-0.001,0-0.002,0-0.003
	c0-7.731-6.266-13.999-13.997-14C8.271,2,2.003,8.266,2.002,15.997C2.002,15.998,2.002,15.999,2.002,16z"/>
<path fill="#FFFFFF" d="M20.279,19.594c-0.386,0-0.698,0.313-0.698,0.698s0.313,0.698,0.698,0.698s0.699-0.313,0.699-0.698l0,0
	C20.977,19.906,20.665,19.594,20.279,19.594z"/>
<path fill="#FFFFFF" d="M9.347,17.654v4.094c0,0.254,0.207,0.461,0.461,0.461l0,0h12.385c0.255,0,0.461-0.207,0.461-0.461l0,0
	v-4.094H9.347z M11.722,21.268c-0.539,0-0.976-0.437-0.976-0.975c0-0.539,0.437-0.976,0.976-0.976s0.975,0.437,0.975,0.976
	C12.696,20.832,12.259,21.268,11.722,21.268L11.722,21.268z M20.279,21.268c-0.538,0-0.975-0.437-0.975-0.975
	c0-0.539,0.437-0.976,0.975-0.976c0.539,0,0.977,0.437,0.977,0.976C21.255,20.831,20.818,21.268,20.279,21.268L20.279,21.268z"/>
<path fill="#FFFFFF" d="M11.721,19.594c-0.386,0-0.699,0.313-0.699,0.698s0.313,0.698,0.699,0.698s0.698-0.313,0.698-0.698l0,0
	C12.418,19.906,12.106,19.594,11.721,19.594z"/>
<path fill="#FFFFFF" d="M22.192,8.567H9.808c-0.254,0-0.461,0.207-0.461,0.461l0,0v8.636h13.307V9.028
	C22.653,8.774,22.447,8.567,22.192,8.567L22.192,8.567z M21.5,16.266c0,0.187-0.151,0.338-0.338,0.338H10.837
	c-0.187,0-0.337-0.151-0.337-0.338v-5.943c0-0.187,0.151-0.338,0.338-0.338h10.324c0.188,0,0.338,0.151,0.338,0.338V16.266z
	 M10.598,22.415v0.946c0,0.623,0.506,1.129,1.13,1.129s1.13-0.506,1.13-1.129v-0.946H10.598z M19.2,22.415v0.946
	c0,0.623,0.506,1.129,1.13,1.129c0.625,0,1.131-0.506,1.131-1.129v-0.946H19.2z"/>
</svg>
