<?xml version="1.0" encoding="utf-8"?>
<!-- Generator: Adobe Illustrator 16.0.0, SVG Export Plug-In . SVG Version: 6.00 Build 0)  -->
<!DOCTYPE svg PUBLIC "-//W3C//DTD SVG 1.1//EN" "http://www.w3.org/Graphics/SVG/1.1/DTD/svg11.dtd">
<svg version="1.1" id="图层_1" xmlns="http://www.w3.org/2000/svg" xmlns:xlink="http://www.w3.org/1999/xlink" x="0px" y="0px"
	 width="64px" height="64px" viewBox="0 0 64 64" enable-background="new 0 0 64 64" xml:space="preserve">
<path fill="#1ABC9C" d="M4.004,32C4.002,47.461,16.535,59.997,31.997,59.999s27.998-12.53,28-27.992c0-0.002,0-0.004,0-0.007
	C59.998,16.539,47.465,4.003,32.003,4.001S4.006,16.532,4.004,31.993C4.004,31.996,4.004,31.998,4.004,32z"/>
<path fill="#FFFFFF" d="M40.559,39.188c-0.771,0-1.396,0.625-1.396,1.396s0.625,1.397,1.396,1.397s1.396-0.626,1.396-1.397l0,0
	C41.955,39.813,41.33,39.188,40.559,39.188z"/>
<path fill="#FFFFFF" d="M18.693,35.308v8.188c0,0.509,0.413,0.923,0.922,0.923l0,0h24.769c0.51,0,0.922-0.414,0.922-0.923l0,0
	v-8.188H18.693z M23.443,42.535c-1.078,0-1.951-0.873-1.951-1.95s0.873-1.95,1.951-1.95c1.077,0,1.95,0.873,1.95,1.95
	c-0.001,1.077-0.875,1.95-1.952,1.95H23.443z M40.561,42.535c-1.078,0-1.951-0.873-1.951-1.95s0.873-1.95,1.951-1.95
	c1.076,0,1.95,0.873,1.95,1.95c-0.001,1.077-0.874,1.95-1.952,1.95H40.561z"/>
<path fill="#FFFFFF" d="M23.441,39.188c-0.771,0-1.397,0.625-1.397,1.396s0.625,1.397,1.397,1.397s1.396-0.626,1.396-1.397l0,0
	C24.837,39.813,24.212,39.188,23.441,39.188z"/>
<path fill="#FFFFFF" d="M44.385,17.134H19.616c-0.51,0-0.922,0.413-0.922,0.923l0,0v17.271h26.613V18.057
	C45.307,17.547,44.895,17.134,44.385,17.134L44.385,17.134z M43,32.531c0,0.373-0.303,0.676-0.676,0.676H21.675
	c-0.373,0-0.675-0.303-0.675-0.676V20.645c0-0.373,0.302-0.676,0.676-0.676h20.649c0.372,0,0.675,0.303,0.675,0.676V32.531z
	 M21.196,44.83v1.891c0,1.248,1.012,2.261,2.26,2.261c1.249,0,2.26-1.013,2.26-2.261V44.83H21.196z M38.4,44.83v1.891
	c0,1.248,1.012,2.261,2.26,2.261s2.26-1.013,2.26-2.261V44.83H38.4z"/>
</svg>
