<?xml version="1.0" encoding="utf-8"?>
<!-- Generator: Adobe Illustrator 16.0.0, SVG Export Plug-In . SVG Version: 6.00 Build 0)  -->
<!DOCTYPE svg PUBLIC "-//W3C//DTD SVG 1.1//EN" "http://www.w3.org/Graphics/SVG/1.1/DTD/svg11.dtd">
<svg version="1.1" id="图层_1" xmlns="http://www.w3.org/2000/svg" xmlns:xlink="http://www.w3.org/1999/xlink" x="0px" y="0px"
	 width="48px" height="48px" viewBox="0 0 48 48" enable-background="new 0 0 48 48" xml:space="preserve">
<path fill="#1ABC9C" d="M3,24.094c0,11.598,9.402,21,21,21c11.598,0,21-9.402,21-21c0-11.598-9.402-21-21-21
	C12.402,3.094,3,12.496,3,24.094z"/>
<path fill="#FFFFFF" d="M32.328,18.461c0,5.643-6.775,14.484-8.104,16.164c-0.098,0.125-0.278,0.146-0.402,0.049
	c-0.018-0.015-0.033-0.031-0.047-0.049c-1.328-1.679-8.104-10.522-8.104-16.164c-0.001-4.6,3.728-8.329,8.327-8.33
	c4.599-0.001,8.329,3.728,8.329,8.327C32.328,18.459,32.328,18.46,32.328,18.461z"/>
<path fill="#FFFFFF" d="M15.672,18.461c0,4.6,3.729,8.328,8.328,8.328s8.328-3.729,8.328-8.328c0.001-4.6-3.728-8.329-8.327-8.33
	c-4.599-0.001-8.329,3.728-8.329,8.327C15.672,18.459,15.672,18.46,15.672,18.461z"/>
<path fill="#1ABC9C" d="M22.006,18.461c0,1.101,0.892,1.995,1.993,1.995s1.995-0.892,1.996-1.993c0-0.001,0-0.002,0-0.002
	c0-1.102-0.893-1.994-1.994-1.994C22.899,16.467,22.006,17.359,22.006,18.461L22.006,18.461z"/>
<path fill="#FFFFFF" d="M15.014,34.764h17.972v1.432H15.014V34.764z"/>
</svg>
