<?xml version="1.0" encoding="utf-8"?>
<!-- Generator: Adobe Illustrator 16.0.0, SVG Export Plug-In . SVG Version: 6.00 Build 0)  -->
<!DOCTYPE svg PUBLIC "-//W3C//DTD SVG 1.1//EN" "http://www.w3.org/Graphics/SVG/1.1/DTD/svg11.dtd">
<svg version="1.1" id="图层_1" xmlns="http://www.w3.org/2000/svg" xmlns:xlink="http://www.w3.org/1999/xlink" x="0px" y="0px"
	 width="64px" height="64px" viewBox="0 0 64 64" enable-background="new 0 0 64 64" xml:space="preserve">
<path fill="#1ABC9C" d="M4,32.125c0,15.464,12.536,28,28,28s28-12.536,28-28s-12.536-28-28-28S4,16.661,4,32.125z"/>
<path fill="#FFFFFF" d="M43.104,24.614c0,7.524-9.034,19.313-10.805,21.554c-0.13,0.165-0.37,0.193-0.535,0.063
	c-0.024-0.018-0.045-0.039-0.063-0.063c-1.771-2.24-10.805-14.03-10.805-21.554c-0.001-6.133,4.97-11.105,11.103-11.106
	c6.132-0.001,11.105,4.97,11.106,11.103C43.104,24.612,43.104,24.613,43.104,24.614z"/>
<path fill="#FFFFFF" d="M20.896,24.614c0,6.133,4.972,11.104,11.104,11.104s11.104-4.972,11.104-11.104
	c0.001-6.133-4.97-11.105-11.103-11.106c-6.133-0.001-11.105,4.97-11.106,11.103C20.896,24.612,20.896,24.613,20.896,24.614z"/>
<path fill="#1ABC9C" d="M29.341,24.614c-0.001,1.468,1.188,2.66,2.657,2.661c1.468,0.001,2.66-1.189,2.66-2.657
	c0-0.001,0-0.002,0-0.003c0-1.468-1.189-2.659-2.658-2.659C30.532,21.956,29.341,23.146,29.341,24.614L29.341,24.614z"/>
<path fill="#FFFFFF" d="M20.019,46.351h23.963v1.909H20.019V46.351z"/>
</svg>
