<?xml version="1.0" encoding="utf-8"?>
<!-- Generator: Adobe Illustrator 16.0.0, SVG Export Plug-In . SVG Version: 6.00 Build 0)  -->
<!DOCTYPE svg PUBLIC "-//W3C//DTD SVG 1.1//EN" "http://www.w3.org/Graphics/SVG/1.1/DTD/svg11.dtd">
<svg version="1.1" id="图层_1" xmlns="http://www.w3.org/2000/svg" xmlns:xlink="http://www.w3.org/1999/xlink" x="0px" y="0px"
	 width="32px" height="32px" viewBox="0 0 32 32" enable-background="new 0 0 32 32" xml:space="preserve">
<path fill="#1ABC9C" d="M2,16.063c0,7.732,6.268,14,14,14c7.732,0,14-6.268,14-14c0-7.732-6.268-14-14-14
	C8.268,2.063,2,8.331,2,16.063z"/>
<path fill="#FFFFFF" d="M21.553,12.307c0,3.762-4.518,9.656-5.403,10.777c-0.065,0.082-0.185,0.097-0.268,0.031
	c-0.012-0.01-0.022-0.02-0.032-0.031c-0.885-1.12-5.402-7.015-5.402-10.777c0-3.066,2.485-5.553,5.551-5.553
	c3.066,0,5.553,2.485,5.554,5.551C21.553,12.306,21.553,12.307,21.553,12.307z"/>
<path fill="#FFFFFF" d="M10.448,12.307c0,3.066,2.486,5.552,5.552,5.552s5.553-2.486,5.553-5.552s-2.485-5.553-5.552-5.553
	c-3.066,0-5.553,2.485-5.553,5.551C10.448,12.306,10.448,12.307,10.448,12.307z"/>
<path fill="#1ABC9C" d="M14.67,12.307c0,0.734,0.595,1.33,1.329,1.33c0.734,0,1.33-0.594,1.331-1.328c0-0.001,0-0.001,0-0.002
	c0-0.734-0.596-1.329-1.33-1.329S14.67,11.573,14.67,12.307L14.67,12.307z"/>
<path fill="#FFFFFF" d="M10.009,23.176H21.99v0.954H10.009V23.176z"/>
</svg>
