<?xml version="1.0" encoding="utf-8"?>
<!-- Generator: Adobe Illustrator 16.0.0, SVG Export Plug-In . SVG Version: 6.00 Build 0)  -->
<!DOCTYPE svg PUBLIC "-//W3C//DTD SVG 1.1//EN" "http://www.w3.org/Graphics/SVG/1.1/DTD/svg11.dtd">
<svg version="1.1" id="图层_1" xmlns="http://www.w3.org/2000/svg" xmlns:xlink="http://www.w3.org/1999/xlink" x="0px" y="0px"
	 width="64px" height="64px" viewBox="0 0 64 64" enable-background="new 0 0 64 64" xml:space="preserve">
<path fill="#1ABC9C" d="M4,32.125c0,15.464,12.536,28,28,28s28-12.536,28-28s-12.536-28-28-28S4,16.661,4,32.125z"/>
<path fill="#FFFFFF" d="M41.725,18.319l-0.027,25.868c0,0.205-0.168,0.371-0.372,0.371l0,0l-21.864-0.024l0.029-26.236
	c0-0.205,0.167-0.371,0.372-0.371l0,0l21.494,0.024C41.559,17.952,41.723,18.116,41.725,18.319z"/>
<path fill="#1ABC9C" d="M24.953,31.103l11.255,0.012l-0.002,2.075l-11.255-0.012L24.953,31.103z"/>
<path fill="#1ABC9C" d="M24.959,25.302l11.256,0.012l-0.003,2.074l-11.255-0.012L24.959,25.302z"/>
<path fill="#FFFFFF" d="M30.638,24.438h13.922V44.82H30.638V24.438z"/>
<path fill="#FFFFFF" d="M33.457,33.289l8.245,0.009l-0.003,2.075l-8.245-0.01L33.457,33.289z"/>
<path fill="#FFFFFF" d="M33.463,27.662l8.245,0.008l-0.003,2.075l-8.245-0.009L33.463,27.662z"/>
<path fill="#FFFFFF" d="M16.717,44.189l30.542,0.031l-0.002,1.856l-30.542-0.032L16.717,44.189L16.717,44.189z"/>
</svg>
