<?xml version="1.0" encoding="utf-8"?>
<!-- Generator: Adobe Illustrator 16.0.0, SVG Export Plug-In . SVG Version: 6.00 Build 0)  -->
<!DOCTYPE svg PUBLIC "-//W3C//DTD SVG 1.1//EN" "http://www.w3.org/Graphics/SVG/1.1/DTD/svg11.dtd">
<svg version="1.1" id="图层_1" xmlns="http://www.w3.org/2000/svg" xmlns:xlink="http://www.w3.org/1999/xlink" x="0px" y="0px"
	 width="48px" height="48px" viewBox="0 0 48 48" enable-background="new 0 0 48 48" xml:space="preserve">
<path fill="#1ABC9C" d="M3,24.094c0,11.598,9.402,21,21,21c11.598,0,21-9.402,21-21c0-11.598-9.402-21-21-21
	C12.402,3.094,3,12.496,3,24.094z"/>
<path fill="#FFFFFF" d="M31.294,13.74l-0.021,19.401c0,0.154-0.125,0.278-0.278,0.277l0,0L14.596,33.4l0.022-19.677
	c0-0.154,0.125-0.278,0.279-0.278l0,0l16.119,0.018C31.169,13.464,31.293,13.587,31.294,13.74z"/>
<path fill="#1ABC9C" d="M18.715,23.327l8.441,0.009l-0.002,1.557l-8.441-0.01L18.715,23.327L18.715,23.327z"/>
<path fill="#1ABC9C" d="M18.719,18.976l8.441,0.009l-0.001,1.556l-8.441-0.009L18.719,18.976z"/>
<path fill="#FFFFFF" d="M22.979,18.328h10.442v15.287H22.979V18.328z"/>
<path fill="#FFFFFF" d="M25.092,24.967l6.185,0.007l-0.001,1.556l-6.185-0.006L25.092,24.967z"/>
<path fill="#FFFFFF" d="M25.097,20.747l6.185,0.006l-0.002,1.556l-6.184-0.006L25.097,20.747z"/>
<path fill="#FFFFFF" d="M12.538,33.142l22.907,0.024l-0.002,1.392l-22.907-0.024L12.538,33.142z"/>
</svg>
