<?xml version="1.0" encoding="utf-8"?>
<!-- Generator: Adobe Illustrator 16.0.0, SVG Export Plug-In . SVG Version: 6.00 Build 0)  -->
<!DOCTYPE svg PUBLIC "-//W3C//DTD SVG 1.1//EN" "http://www.w3.org/Graphics/SVG/1.1/DTD/svg11.dtd">
<svg version="1.1" id="图层_1" xmlns="http://www.w3.org/2000/svg" xmlns:xlink="http://www.w3.org/1999/xlink" x="0px" y="0px"
	 width="32px" height="32px" viewBox="0 0 32 32" enable-background="new 0 0 32 32" xml:space="preserve">
<path fill="#1ABC9C" d="M2,16.063c0,7.732,6.268,14,14,14c7.732,0,14-6.268,14-14c0-7.732-6.268-14-14-14
	C8.268,2.063,2,8.331,2,16.063z"/>
<path fill="#FFFFFF" d="M20.862,9.16l-0.014,12.934c-0.001,0.103-0.083,0.186-0.187,0.186l0,0L9.73,22.268L9.745,9.149
	c0-0.103,0.083-0.186,0.186-0.185l0,0l10.747,0.012C20.779,8.976,20.861,9.058,20.862,9.16z"/>
<path fill="#1ABC9C" d="M12.477,15.551l5.627,0.006v1.038l-5.628-0.006L12.477,15.551z"/>
<path fill="#1ABC9C" d="M12.479,12.651l5.628,0.006l-0.002,1.037l-5.627-0.006L12.479,12.651z"/>
<path fill="#FFFFFF" d="M15.319,12.219h6.962V22.41h-6.962V12.219z"/>
<path fill="#FFFFFF" d="M16.729,16.645l4.123,0.004l-0.002,1.037l-4.123-0.004L16.729,16.645z"/>
<path fill="#FFFFFF" d="M16.73,13.831l4.123,0.004v1.037l-4.123-0.004V13.831z"/>
<path fill="#FFFFFF" d="M8.359,22.094L23.63,22.11l-0.001,0.929L8.358,23.022L8.359,22.094z"/>
</svg>
