<?xml version="1.0" encoding="utf-8"?>
<!-- Generator: Adobe Illustrator 16.0.0, SVG Export Plug-In . SVG Version: 6.00 Build 0)  -->
<!DOCTYPE svg PUBLIC "-//W3C//DTD SVG 1.1//EN" "http://www.w3.org/Graphics/SVG/1.1/DTD/svg11.dtd">
<svg version="1.1" id="图层_1" xmlns="http://www.w3.org/2000/svg" xmlns:xlink="http://www.w3.org/1999/xlink" x="0px" y="0px"
	 width="64px" height="64px" viewBox="0 0 64 64" enable-background="new 0 0 64 64" xml:space="preserve">
<path fill="#F39C12" d="M59,29.081L33.088,14.125c-0.338-0.231-0.731-0.35-1.138-0.35s-0.8,0.119-1.138,0.35L8.531,26.987
	c2.575-12.106,14.125-20.406,26.612-18.75c8.231,1.088,15.213,6.244,18.675,13.794c0.463,1.006,1.65,1.444,2.65,0.981
	c1.006-0.463,1.443-1.65,0.981-2.65c-1.938-4.219-4.925-7.925-8.632-10.719c-3.824-2.881-8.375-4.737-13.149-5.369
	c-3.744-0.494-7.475-0.244-11.094,0.75C21.087,5.981,17.85,7.587,14.969,9.8c-2.888,2.207-5.281,4.906-7.112,8.025
	c-1.9,3.231-3.113,6.762-3.613,10.506C3.75,32.075,4,35.8,4.994,39.412c0.962,3.481,2.569,6.713,4.781,9.594
	c2.212,2.882,4.913,5.275,8.031,7.106c3.231,1.9,6.769,3.112,10.513,3.612c1.244,0.163,2.487,0.244,3.719,0.244
	c2.488,0,4.957-0.331,7.369-0.994c3.487-0.956,6.725-2.563,9.606-4.774c2.888-2.206,5.281-4.906,7.112-8.025
	c1.9-3.231,3.112-6.763,3.612-10.506c0.2-1.507,0.275-3.031,0.231-4.538C60.106,30.337,59.744,29.513,59,29.081z M43.981,41.994
	v-9.981H48v9.981H43.981z M20,32.013v9.981h-4v-9.981H20z M32,22.931l8.807,5.087H23.194L32,22.931z M24,32.013h15.987v9.981H24
	V32.013z M43.307,28.013l-10.988-6.344c-0.1-0.057-0.212-0.082-0.319-0.082s-0.219,0.025-0.319,0.082l-10.987,6.344h-5.938
	l17.194-9.925l17.193,9.925H43.307z M8,32.013h4v9.981h-1.819C8.737,38.869,7.994,35.481,8,32.013z M12.519,45.994h38.956
	c-0.5,0.693-1.037,1.362-1.612,1.993H14.119c-0.406-0.456-0.793-0.925-1.168-1.412C12.806,46.381,12.656,46.188,12.519,45.994z
	 M22.4,53.975c-1.281-0.556-2.506-1.219-3.663-1.987h26.487c-1.156,0.769-2.381,1.432-3.662,1.987H22.4z M53.807,41.994H52v-9.981
	h3.987c0,1.044-0.068,2.094-0.206,3.138C55.463,37.575,54.781,39.875,53.807,41.994z"/>
</svg>
