<?xml version="1.0" encoding="utf-8"?>
<!-- Generator: Adobe Illustrator 16.0.0, SVG Export Plug-In . SVG Version: 6.00 Build 0)  -->
<!DOCTYPE svg PUBLIC "-//W3C//DTD SVG 1.1//EN" "http://www.w3.org/Graphics/SVG/1.1/DTD/svg11.dtd">
<svg version="1.1" id="图层_1" xmlns="http://www.w3.org/2000/svg" xmlns:xlink="http://www.w3.org/1999/xlink" x="0px" y="0px"
	 width="32px" height="32px" viewBox="0 0 32 32" enable-background="new 0 0 32 32" xml:space="preserve">
<path fill="#9B59B6" d="M29.5,14.541L16.544,7.063c-0.169-0.116-0.366-0.175-0.569-0.175s-0.4,0.059-0.569,0.175l-11.14,6.431
	C5.553,7.44,11.328,3.291,17.572,4.119c4.115,0.544,7.605,3.122,9.337,6.897c0.231,0.503,0.825,0.722,1.325,0.491
	c0.502-0.231,0.722-0.825,0.49-1.325c-0.97-2.109-2.463-3.962-4.315-5.359c-1.912-1.44-4.188-2.369-6.575-2.684
	c-1.872-0.247-3.737-0.122-5.546,0.375C10.544,2.991,8.925,3.794,7.484,4.9c-1.443,1.103-2.64,2.453-3.556,4.013
	c-0.95,1.616-1.556,3.381-1.806,5.253C1.875,16.038,2,17.9,2.497,19.706c0.481,1.741,1.284,3.356,2.391,4.797
	c1.106,1.44,2.456,2.638,4.016,3.554c1.615,0.949,3.384,1.557,5.256,1.807c0.622,0.08,1.244,0.121,1.859,0.121
	c1.245,0,2.479-0.166,3.685-0.496c1.743-0.479,3.362-1.281,4.803-2.389c1.444-1.103,2.642-2.453,3.558-4.012
	c0.949-1.615,1.557-3.382,1.807-5.254c0.1-0.753,0.137-1.515,0.115-2.269C30.053,15.169,29.872,14.756,29.5,14.541z M21.99,20.997
	v-4.991H24v4.991H21.99z M10,16.006v4.991H8v-4.991H10z M16,11.466l4.402,2.543h-8.806L16,11.466z M12,16.006h7.994v4.991H12V16.006
	z M21.652,14.006l-5.493-3.172c-0.05-0.028-0.106-0.041-0.159-0.041s-0.109,0.012-0.159,0.041l-5.494,3.172H7.378l8.597-4.962
	l8.597,4.962H21.652z M4,16.006h2v4.991H5.091C4.369,19.436,3.997,17.74,4,16.006z M6.259,22.997h19.478
	c-0.25,0.347-0.519,0.681-0.805,0.997H7.06c-0.203-0.229-0.397-0.463-0.584-0.707C6.403,23.189,6.328,23.094,6.259,22.997z
	 M11.2,26.986c-0.641-0.277-1.253-0.608-1.832-0.992h13.243c-0.577,0.384-1.189,0.715-1.83,0.992H11.2z M26.902,20.997H26v-4.991
	h1.994c0,0.521-0.035,1.047-0.104,1.569C27.73,18.787,27.391,19.938,26.902,20.997z"/>
</svg>
