<?xml version="1.0" encoding="utf-8"?>
<!-- Generator: Adobe Illustrator 16.0.0, SVG Export Plug-In . SVG Version: 6.00 Build 0)  -->
<!DOCTYPE svg PUBLIC "-//W3C//DTD SVG 1.1//EN" "http://www.w3.org/Graphics/SVG/1.1/DTD/svg11.dtd">
<svg version="1.1" id="图层_1" xmlns="http://www.w3.org/2000/svg" xmlns:xlink="http://www.w3.org/1999/xlink" x="0px" y="0px"
	 width="48px" height="48px" viewBox="0 0 48 48" enable-background="new 0 0 48 48" xml:space="preserve">
<path fill="#9B59B6" d="M44.25,21.811L24.815,10.594c-0.253-0.173-0.548-0.263-0.853-0.263s-0.6,0.089-0.853,0.263L6.398,20.241
	C8.33,11.161,16.992,4.936,26.357,6.178c6.174,0.815,11.41,4.683,14.007,10.345c0.347,0.755,1.237,1.083,1.987,0.736
	c0.755-0.347,1.083-1.237,0.736-1.987c-1.453-3.164-3.694-5.944-6.474-8.039c-2.869-2.161-6.281-3.553-9.862-4.027
	c-2.808-0.37-5.606-0.183-8.321,0.563c-2.616,0.717-5.043,1.922-7.205,3.582c-2.166,1.655-3.961,3.68-5.334,6.019
	c-1.425,2.423-2.334,5.072-2.709,7.88C2.813,24.056,3,26.85,3.745,29.56c0.722,2.61,1.927,5.034,3.586,7.195
	c1.66,2.161,3.685,3.956,6.023,5.329c2.424,1.426,5.077,2.335,7.885,2.71c0.933,0.122,1.865,0.183,2.789,0.183
	c1.865,0,3.717-0.248,5.526-0.745c2.615-0.718,5.044-1.922,7.205-3.581c2.165-1.655,3.961-3.68,5.334-6.02
	c1.425-2.423,2.334-5.071,2.709-7.879c0.15-1.13,0.207-2.274,0.174-3.403C45.08,22.753,44.808,22.134,44.25,21.811z M32.986,31.495
	v-7.486H36v7.486H32.986z M15,24.009v7.486h-3v-7.486H15z M24,17.198l6.604,3.816H17.396L24,17.198z M18,24.009h11.99v7.486H18
	V24.009z M32.479,21.009l-8.24-4.758C24.164,16.209,24.08,16.19,24,16.19s-0.164,0.019-0.239,0.061l-8.24,4.758h-4.453l12.895-7.444
	l12.895,7.444H32.479z M6,24.009h3v7.486H7.636C6.553,29.151,5.995,26.611,6,24.009z M9.389,34.495h29.217
	c-0.375,0.521-0.778,1.022-1.21,1.495H10.589c-0.305-0.342-0.595-0.693-0.876-1.059C9.604,34.786,9.492,34.641,9.389,34.495z
	 M16.8,40.481c-0.961-0.417-1.879-0.914-2.747-1.491h19.866c-0.867,0.577-1.786,1.074-2.747,1.491H16.8z M40.354,31.495H39v-7.486
	h2.99c0,0.783-0.051,1.571-0.154,2.353C41.597,28.182,41.086,29.906,40.354,31.495z"/>
</svg>
