<?xml version="1.0" encoding="utf-8"?>
<!-- Generator: Adobe Illustrator 16.0.0, SVG Export Plug-In . SVG Version: 6.00 Build 0)  -->
<!DOCTYPE svg PUBLIC "-//W3C//DTD SVG 1.1//EN" "http://www.w3.org/Graphics/SVG/1.1/DTD/svg11.dtd">
<svg version="1.1" id="图层_1" xmlns="http://www.w3.org/2000/svg" xmlns:xlink="http://www.w3.org/1999/xlink" x="0px" y="0px"
	 width="48px" height="48px" viewBox="0 0 48 48" enable-background="new 0 0 48 48" xml:space="preserve">
<path fill="#1ABC9C" d="M3.003,24c-0.001,11.596,9.398,20.998,20.994,21c11.596,0,20.998-9.398,20.999-20.995
	c0-0.001,0-0.003,0-0.005c0.002-11.596-9.397-20.998-20.994-21C12.406,3,3.005,12.399,3.003,23.995
	C3.003,23.997,3.003,23.999,3.003,24z"/>
<path fill="#FFFFFF" d="M33.404,11.413l-6.354,0.033c-0.158,0.001-0.287,0.129-0.287,0.288l0.005,6.691L17.6,18.448
	c-0.124,0-0.233,0.079-0.272,0.196l-2.13,6.393c-0.05,0.151,0.031,0.314,0.182,0.364c0.029,0.01,0.06,0.015,0.091,0.015h15.89
	L31.359,18.7c0-0.159-0.129-0.287-0.287-0.287h-0.001l-2.097,0.005v-2.016c0-0.159,0.129-0.287,0.288-0.287l0,0h4.143
	c0.159,0,0.288-0.129,0.288-0.288l0,0v-4.125c0.001-0.159-0.127-0.288-0.285-0.29C33.406,11.413,33.406,11.413,33.404,11.413
	L33.404,11.413z M22.078,22.828c0,0.159-0.128,0.288-0.287,0.288l0,0h-1.749c-0.159,0-0.288-0.129-0.288-0.288l0,0v-1.752
	c0-0.159,0.129-0.288,0.288-0.288l0,0h1.75c0.159,0,0.288,0.128,0.288,0.288l0,0L22.078,22.828z M29.006,22.828
	c0,0.159-0.129,0.288-0.288,0.288l0,0h-4.021c-0.159,0-0.288-0.129-0.288-0.288l0,0v-1.752c0-0.159,0.129-0.288,0.288-0.288l0,0
	h4.023c0.158,0,0.287,0.128,0.287,0.288l0,0L29.006,22.828z"/>
<path fill="#FFFFFF" d="M15.335,29.222c0,0.759,0.615,1.374,1.374,1.374c0.759,0,1.374-0.615,1.374-1.374s-0.615-1.373-1.374-1.373
	C15.951,27.849,15.335,28.463,15.335,29.222z"/>
<path fill="#FFFFFF" d="M37.924,25.413H17.505c-0.072,0-0.141-0.026-0.194-0.075l-2.349-2.147c-0.053-0.048-0.122-0.076-0.194-0.076
	H8.201c-0.159,0-0.287,0.129-0.287,0.288c0,0.038,0.007,0.075,0.021,0.109l4.539,11.022c0.044,0.107,0.149,0.178,0.266,0.178h23.097
	c0.134,0.001,0.25-0.091,0.281-0.22l2.086-8.725c0.037-0.154-0.059-0.309-0.213-0.346C37.969,25.416,37.947,25.414,37.924,25.413z
	 M16.709,31.88c-1.468,0-2.658-1.19-2.658-2.658s1.19-2.657,2.658-2.657s2.658,1.189,2.658,2.657S18.177,31.88,16.709,31.88
	L16.709,31.88z M23.063,30.74c-0.839,0-1.519-0.681-1.519-1.52c0-0.838,0.68-1.519,1.519-1.519s1.519,0.681,1.519,1.519
	C24.58,30.059,23.901,30.738,23.063,30.74z M28.486,30.74c-0.839,0-1.519-0.681-1.519-1.52c0-0.838,0.68-1.519,1.519-1.519
	s1.52,0.681,1.52,1.519c-0.002,0.84-0.682,1.52-1.521,1.52H28.486z"/>
<path fill="#FFFFFF" d="M23.063,28.133c-0.601,0-1.088,0.487-1.088,1.088c0,0.602,0.487,1.088,1.088,1.088s1.088-0.486,1.088-1.088
	C24.15,28.62,23.663,28.133,23.063,28.133z M28.484,28.133c-0.601,0-1.088,0.487-1.088,1.088c0,0.602,0.487,1.088,1.088,1.088
	c0.602,0,1.088-0.486,1.088-1.088C29.572,28.62,29.085,28.133,28.484,28.133z"/>
<path fill="#FFFFFF" d="M21.99,29.219c0,0.592,0.48,1.073,1.074,1.073s1.074-0.481,1.074-1.073c0-0.594-0.48-1.074-1.074-1.074
	S21.99,28.625,21.99,29.219z"/>
<path fill="#FFFFFF" d="M27.408,29.221c0,0.595,0.481,1.077,1.076,1.077s1.076-0.482,1.076-1.077c0-0.594-0.481-1.076-1.076-1.076
	S27.408,28.627,27.408,29.221z"/>
</svg>
