<?xml version="1.0" encoding="utf-8"?>
<!-- Generator: Adobe Illustrator 16.0.0, SVG Export Plug-In . SVG Version: 6.00 Build 0)  -->
<!DOCTYPE svg PUBLIC "-//W3C//DTD SVG 1.1//EN" "http://www.w3.org/Graphics/SVG/1.1/DTD/svg11.dtd">
<svg version="1.1" id="图层_1" xmlns="http://www.w3.org/2000/svg" xmlns:xlink="http://www.w3.org/1999/xlink" x="0px" y="0px"
	 width="32px" height="32px" viewBox="0 0 32 32" enable-background="new 0 0 32 32" xml:space="preserve">
<path fill="#1ABC9C" d="M2.002,16c0,7.73,6.266,13.998,13.997,14c7.73,0,13.999-6.266,14-13.997c0-0.001,0-0.002,0-0.003
	c0-7.731-6.266-13.999-13.997-14C8.271,2,2.003,8.266,2.002,15.997C2.002,15.998,2.002,15.999,2.002,16z"/>
<path fill="#FFFFFF" d="M22.27,7.609L18.033,7.63c-0.105,0.001-0.19,0.086-0.19,0.192l0.003,4.46l-6.112,0.016
	c-0.082,0-0.155,0.053-0.181,0.131l-1.42,4.262c-0.034,0.102,0.021,0.209,0.121,0.242c0.02,0.008,0.04,0.01,0.061,0.01h10.594
	l-0.002-4.477c0-0.106-0.086-0.191-0.191-0.191c0,0,0,0-0.001,0l-1.397,0.003v-1.344c0-0.106,0.086-0.191,0.191-0.191l0,0h2.763
	c0.105,0,0.191-0.086,0.191-0.192l0,0v-2.75c0.001-0.105-0.085-0.192-0.19-0.193C22.271,7.609,22.271,7.609,22.27,7.609z
	 M14.719,15.219c0,0.106-0.086,0.191-0.191,0.191l0,0h-1.166c-0.105,0-0.191-0.085-0.191-0.191l0,0V14.05
	c0-0.106,0.086-0.191,0.191-0.191l0,0h1.167c0.106,0,0.191,0.085,0.191,0.191l0,0L14.719,15.219z M19.337,15.219
	c0,0.106-0.086,0.191-0.191,0.191l0,0h-2.681c-0.106,0-0.191-0.085-0.191-0.191l0,0V14.05c0-0.106,0.085-0.191,0.191-0.191l0,0
	h2.682c0.105,0,0.191,0.085,0.191,0.191l0,0L19.337,15.219z"/>
<path fill="#FFFFFF" d="M10.224,19.481c0,0.505,0.41,0.915,0.916,0.915c0.506,0,0.916-0.41,0.916-0.915
	c0-0.506-0.41-0.916-0.916-0.916C10.634,18.565,10.224,18.976,10.224,19.481z"/>
<path fill="#FFFFFF" d="M25.283,16.942H11.67c-0.048,0-0.094-0.019-0.129-0.05L9.975,15.46c-0.036-0.032-0.082-0.05-0.129-0.05
	H5.467c-0.106,0-0.192,0.085-0.192,0.191c0,0.025,0.005,0.05,0.015,0.073l3.025,7.349c0.03,0.071,0.1,0.117,0.177,0.117h15.398
	c0.089,0.002,0.166-0.06,0.188-0.146l1.391-5.816c0.025-0.102-0.039-0.205-0.142-0.23C25.313,16.943,25.298,16.942,25.283,16.942z
	 M11.139,21.253c-0.979,0-1.771-0.793-1.771-1.771c0-0.979,0.793-1.772,1.771-1.772c0.979,0,1.772,0.793,1.772,1.772
	C12.911,20.46,12.118,21.253,11.139,21.253L11.139,21.253z M15.375,20.493c-0.559,0-1.013-0.454-1.013-1.013
	s0.454-1.012,1.013-1.012s1.013,0.453,1.013,1.012C16.387,20.039,15.934,20.492,15.375,20.493z M18.99,20.493
	c-0.559,0-1.012-0.454-1.012-1.013s0.453-1.012,1.012-1.012c0.561,0,1.014,0.453,1.014,1.012
	C20.003,20.04,19.549,20.493,18.99,20.493L18.99,20.493z"/>
<path fill="#FFFFFF" d="M15.375,18.756c-0.4,0-0.725,0.324-0.725,0.725s0.325,0.726,0.725,0.726S16.1,19.881,16.1,19.48
	S15.775,18.756,15.375,18.756z M18.99,18.756c-0.4,0-0.727,0.324-0.727,0.725s0.326,0.726,0.727,0.726s0.725-0.325,0.725-0.726
	S19.391,18.756,18.99,18.756z"/>
<path fill="#FFFFFF" d="M14.66,19.479c0,0.396,0.32,0.717,0.716,0.717s0.716-0.321,0.716-0.717c0-0.395-0.321-0.716-0.716-0.716
	S14.66,19.084,14.66,19.479z"/>
<path fill="#FFFFFF" d="M18.271,19.48c0,0.396,0.322,0.718,0.719,0.718s0.717-0.321,0.717-0.718s-0.32-0.718-0.717-0.718
	S18.271,19.084,18.271,19.48z"/>
</svg>
