<?xml version="1.0" encoding="utf-8"?>
<!-- Generator: Adobe Illustrator 16.0.0, SVG Export Plug-In . SVG Version: 6.00 Build 0)  -->
<!DOCTYPE svg PUBLIC "-//W3C//DTD SVG 1.1//EN" "http://www.w3.org/Graphics/SVG/1.1/DTD/svg11.dtd">
<svg version="1.1" id="图层_1" xmlns="http://www.w3.org/2000/svg" xmlns:xlink="http://www.w3.org/1999/xlink" x="0px" y="0px"
	 width="64px" height="64px" viewBox="0 0 64 64" enable-background="new 0 0 64 64" xml:space="preserve">
<path fill="#1ABC9C" d="M4.004,32C4.002,47.461,16.535,59.997,31.997,59.999s27.998-12.53,28-27.992c0-0.002,0-0.004,0-0.007
	C59.998,16.539,47.465,4.003,32.003,4.001S4.006,16.532,4.004,31.993C4.004,31.996,4.004,31.998,4.004,32z"/>
<path fill="#FFFFFF" d="M44.539,15.217l-8.473,0.044c-0.211,0.001-0.381,0.172-0.381,0.383l0.006,8.921l-12.225,0.031
	c-0.165,0-0.311,0.106-0.362,0.262l-2.84,8.525c-0.067,0.2,0.042,0.417,0.242,0.485c0.04,0.012,0.081,0.02,0.122,0.02h21.188
	l-0.003-8.955c0-0.211-0.172-0.383-0.383-0.383c0,0-0.001,0-0.002,0l-2.794,0.007V21.87c0-0.212,0.171-0.383,0.384-0.383l0,0h5.523
	c0.211,0,0.383-0.171,0.383-0.383l0,0v-5.5c0.002-0.212-0.168-0.385-0.38-0.387C44.543,15.217,44.541,15.217,44.539,15.217z
	 M29.438,30.438c0,0.211-0.171,0.383-0.383,0.383l0,0h-2.331c-0.211,0-0.383-0.172-0.383-0.383l0,0v-2.337
	c0-0.211,0.172-0.383,0.383-0.383l0,0h2.334c0.211,0,0.383,0.172,0.383,0.383l0,0L29.438,30.438z M38.674,30.438
	c0,0.211-0.172,0.383-0.383,0.383l0,0h-5.362c-0.212,0-0.384-0.172-0.384-0.383l0,0v-2.337c0-0.211,0.172-0.383,0.384-0.383l0,0
	h5.365c0.212,0,0.383,0.172,0.383,0.383l0,0L38.674,30.438z"/>
<path fill="#FFFFFF" d="M20.447,38.963c0,1.012,0.82,1.831,1.832,1.831s1.831-0.819,1.831-1.831s-0.82-1.832-1.831-1.832
	S20.447,37.951,20.447,38.963z"/>
<path fill="#FFFFFF" d="M50.565,33.885H23.34c-0.096,0-0.188-0.036-0.259-0.102L19.95,30.92c-0.071-0.064-0.163-0.101-0.259-0.101
	h-8.757c-0.212,0-0.383,0.172-0.383,0.383c0,0.05,0.01,0.1,0.029,0.146l6.051,14.696c0.059,0.145,0.199,0.238,0.354,0.238h30.795
	c0.178,0,0.334-0.121,0.375-0.295l2.781-11.631c0.049-0.207-0.078-0.413-0.283-0.463C50.625,33.889,50.596,33.885,50.565,33.885z
	 M22.279,42.506c-1.957,0-3.544-1.586-3.544-3.543s1.587-3.544,3.544-3.544s3.543,1.587,3.543,3.544S24.236,42.506,22.279,42.506
	L22.279,42.506z M30.75,40.986c-1.118,0-2.025-0.906-2.025-2.025c0-1.118,0.907-2.025,2.025-2.025s2.025,0.907,2.025,2.025
	C32.773,40.079,31.868,40.984,30.75,40.986z M37.982,40.986c-1.119,0-2.025-0.906-2.025-2.025c0-1.118,0.906-2.025,2.025-2.025
	c1.117,0,2.024,0.907,2.024,2.025c-0.001,1.119-0.909,2.025-2.027,2.025H37.982z"/>
<path fill="#FFFFFF" d="M30.75,37.511c-0.801,0-1.451,0.649-1.451,1.45s0.649,1.451,1.451,1.451s1.451-0.65,1.451-1.451
	C32.2,38.16,31.551,37.512,30.75,37.511z M37.979,37.511c-0.802,0-1.45,0.649-1.45,1.45s0.648,1.451,1.45,1.451
	s1.45-0.65,1.45-1.451S38.78,37.512,37.979,37.511z"/>
<path fill="#FFFFFF" d="M29.319,38.957c0,0.791,0.641,1.432,1.432,1.432c0.791,0,1.432-0.641,1.432-1.432s-0.641-1.432-1.432-1.432
	C29.96,37.525,29.319,38.166,29.319,38.957z"/>
<path fill="#FFFFFF" d="M36.544,38.961c0,0.793,0.643,1.436,1.436,1.436s1.436-0.643,1.436-1.436s-0.643-1.436-1.436-1.436
	S36.544,38.168,36.544,38.961z"/>
</svg>
