<?xml version="1.0" encoding="utf-8"?>
<!-- Generator: Adobe Illustrator 16.0.0, SVG Export Plug-In . SVG Version: 6.00 Build 0)  -->
<!DOCTYPE svg PUBLIC "-//W3C//DTD SVG 1.1//EN" "http://www.w3.org/Graphics/SVG/1.1/DTD/svg11.dtd">
<svg version="1.1" id="图层_1" xmlns="http://www.w3.org/2000/svg" xmlns:xlink="http://www.w3.org/1999/xlink" x="0px" y="0px"
	 width="64px" height="64px" viewBox="0 0 64 64" enable-background="new 0 0 64 64" xml:space="preserve">
<path fill="#1ABC9C" d="M4.004,32C4.002,47.461,16.535,59.997,31.997,59.999s27.998-12.53,28-27.992c0-0.002,0-0.004,0-0.007
	C59.998,16.539,47.465,4.003,32.003,4.001S4.006,16.532,4.004,31.993C4.004,31.996,4.004,31.998,4.004,32z"/>
<path fill="#FFFFFF" d="M43.156,46.511v1.808H20.844v-1.808H43.156z"/>
<path fill="#D1F0C7" d="M20.924,17.384v27.092l-3.449-1.096c-0.179-0.057-0.301-0.224-0.301-0.412V18.928
	c0-0.209,0.135-0.394,0.333-0.457L20.924,17.384z M43.076,17.384v27.092l3.416-1.086c0.199-0.063,0.334-0.248,0.334-0.456V18.928
	c0.001-0.209-0.135-0.394-0.333-0.457L43.076,17.384z"/>
<path fill="#FFFFFF" d="M26.321,38.107c-0.757,0-1.37,0.614-1.37,1.371c0,0.756,0.613,1.369,1.37,1.369
	c0.756,0,1.37-0.613,1.37-1.369l0,0C27.689,38.723,27.077,38.109,26.321,38.107z M37.68,38.107c-0.757,0-1.37,0.614-1.37,1.371
	c0,0.756,0.613,1.369,1.37,1.369c0.756,0,1.369-0.613,1.369-1.369l0,0C39.049,38.723,38.436,38.109,37.68,38.107z"/>
<path fill="#FFFFFF" d="M20.924,17.384v27.092h22.152V17.384H20.924z M25.544,23.362c0-0.351,0.285-0.636,0.636-0.636h11.64
	c0.352,0,0.636,0.285,0.636,0.636v4.678c0,0.352-0.284,0.636-0.636,0.636H26.18c-0.352,0-0.636-0.285-0.636-0.636L25.544,23.362z
	 M26.321,41.391c-1.057,0-1.913-0.855-1.913-1.912s0.856-1.914,1.913-1.914s1.913,0.857,1.913,1.914l0,0
	C28.233,40.534,27.377,41.391,26.321,41.391z M37.68,41.391c-1.057,0-1.914-0.855-1.914-1.912s0.857-1.914,1.914-1.914
	s1.912,0.857,1.912,1.914l0,0C39.592,40.534,38.735,41.391,37.68,41.391z"/>
</svg>
