<?xml version="1.0" encoding="utf-8"?>
<!-- Generator: Adobe Illustrator 16.0.0, SVG Export Plug-In . SVG Version: 6.00 Build 0)  -->
<!DOCTYPE svg PUBLIC "-//W3C//DTD SVG 1.1//EN" "http://www.w3.org/Graphics/SVG/1.1/DTD/svg11.dtd">
<svg version="1.1" id="图层_1" xmlns="http://www.w3.org/2000/svg" xmlns:xlink="http://www.w3.org/1999/xlink" x="0px" y="0px"
	 width="32px" height="32px" viewBox="0 0 32 32" enable-background="new 0 0 32 32" xml:space="preserve">
<path fill="#1ABC9C" d="M2.002,16c0,7.73,6.266,13.998,13.997,14c7.73,0,13.999-6.266,14-13.997c0-0.001,0-0.002,0-0.003
	c0-7.731-6.266-13.999-13.997-14C8.271,2,2.003,8.266,2.002,15.997C2.002,15.998,2.002,15.999,2.002,16z"/>
<path fill="#FFFFFF" d="M21.578,23.256v0.903H10.422v-0.903H21.578z"/>
<path fill="#D1F0C7" d="M10.462,8.692v13.546L8.737,21.69c-0.09-0.028-0.15-0.112-0.15-0.206V9.464c0-0.104,0.067-0.197,0.167-0.228
	L10.462,8.692z M21.538,8.692v13.546l1.708-0.543c0.1-0.031,0.168-0.123,0.168-0.229V9.464c0-0.104-0.068-0.197-0.168-0.228
	L21.538,8.692z"/>
<path fill="#FFFFFF" d="M13.16,19.055c-0.378,0-0.685,0.307-0.685,0.685s0.307,0.685,0.685,0.685c0.378,0,0.685-0.307,0.685-0.685
	l0,0C13.845,19.361,13.539,19.055,13.16,19.055z M18.84,19.055c-0.379,0-0.686,0.307-0.686,0.685s0.307,0.685,0.686,0.685
	c0.378,0,0.686-0.307,0.686-0.685l0,0C19.523,19.361,19.218,19.055,18.84,19.055z"/>
<path fill="#FFFFFF" d="M10.462,8.692v13.546h11.076V8.692H10.462z M12.772,11.681c0-0.176,0.143-0.318,0.318-0.318h5.82
	c0.176,0,0.318,0.142,0.318,0.318v2.339c0,0.176-0.143,0.318-0.318,0.318h-5.82c-0.175,0-0.318-0.143-0.318-0.318V11.681z
	 M13.16,20.695c-0.528,0-0.957-0.428-0.957-0.956s0.428-0.956,0.957-0.956s0.957,0.428,0.957,0.956l0,0
	C14.116,20.268,13.688,20.695,13.16,20.695z M18.84,20.695c-0.528,0-0.957-0.428-0.957-0.956s0.429-0.956,0.957-0.956
	s0.957,0.428,0.957,0.956l0,0C19.796,20.268,19.367,20.695,18.84,20.695z"/>
</svg>
