<?xml version="1.0" encoding="utf-8"?>
<!-- Generator: Adobe Illustrator 16.0.0, SVG Export Plug-In . SVG Version: 6.00 Build 0)  -->
<!DOCTYPE svg PUBLIC "-//W3C//DTD SVG 1.1//EN" "http://www.w3.org/Graphics/SVG/1.1/DTD/svg11.dtd">
<svg version="1.1" id="图层_1" xmlns="http://www.w3.org/2000/svg" xmlns:xlink="http://www.w3.org/1999/xlink" x="0px" y="0px"
	 width="48px" height="48px" viewBox="0 0 48 48" enable-background="new 0 0 48 48" xml:space="preserve">
<path fill="#1ABC9C" d="M3.003,24c-0.001,11.596,9.398,20.998,20.994,21c11.596,0,20.998-9.398,20.999-20.995
	c0-0.001,0-0.003,0-0.005c0.002-11.596-9.397-20.998-20.994-21C12.406,3,3.005,12.399,3.003,23.995
	C3.003,23.997,3.003,23.999,3.003,24z"/>
<path fill="#FFFFFF" d="M32.367,34.883v1.355H15.633v-1.355H32.367z"/>
<path fill="#D1F0C7" d="M15.693,13.038v20.319l-2.587-0.822c-0.135-0.043-0.226-0.167-0.226-0.309v-18.03
	c0-0.157,0.101-0.295,0.25-0.343L15.693,13.038z M32.307,13.038v20.319l2.563-0.814c0.149-0.047,0.251-0.186,0.251-0.342V14.196
	c0-0.157-0.101-0.295-0.251-0.343L32.307,13.038z"/>
<path fill="#FFFFFF" d="M19.74,28.581c-0.567,0-1.027,0.46-1.027,1.027s0.46,1.028,1.028,1.028c0.567,0,1.027-0.461,1.027-1.028l0,0
	C20.767,29.041,20.308,28.582,19.74,28.581z M28.26,28.581c-0.568,0-1.027,0.46-1.027,1.027s0.459,1.028,1.027,1.028
	c0.567,0,1.027-0.461,1.027-1.028l0,0C29.286,29.041,28.826,28.582,28.26,28.581z"/>
<path fill="#FFFFFF" d="M15.693,13.038v20.319h16.614V13.038H15.693z M19.158,17.522c0-0.264,0.214-0.478,0.477-0.478h8.73
	c0.264,0,0.477,0.214,0.477,0.478v3.508c0,0.264-0.213,0.478-0.477,0.478h-8.73c-0.263,0-0.477-0.214-0.477-0.478L19.158,17.522z
	 M19.74,31.043c-0.792,0-1.435-0.643-1.435-1.435s0.643-1.435,1.435-1.435c0.792,0,1.435,0.643,1.435,1.435l0,0
	C21.174,30.4,20.533,31.043,19.74,31.043z M28.26,31.043c-0.793,0-1.436-0.643-1.436-1.435s0.643-1.435,1.436-1.435
	c0.792,0,1.435,0.643,1.435,1.435l0,0C29.693,30.4,29.052,31.043,28.26,31.043z"/>
</svg>
