<?xml version="1.0" encoding="utf-8"?>
<!-- Generator: Adobe Illustrator 16.0.0, SVG Export Plug-In . SVG Version: 6.00 Build 0)  -->
<!DOCTYPE svg PUBLIC "-//W3C//DTD SVG 1.1//EN" "http://www.w3.org/Graphics/SVG/1.1/DTD/svg11.dtd">
<svg version="1.1" id="图层_1" xmlns="http://www.w3.org/2000/svg" xmlns:xlink="http://www.w3.org/1999/xlink" x="0px" y="0px"
	 width="32px" height="32px" viewBox="0 0 32 32" enable-background="new 0 0 32 32" xml:space="preserve">
<path fill="#1ABC9C" d="M2,16.063c0,7.732,6.268,14,14,14c7.732,0,14-6.268,14-14c0-7.732-6.268-14-14-14
	C8.268,2.063,2,8.331,2,16.063z"/>
<path fill="#FFFFFF" d="M20.271,8.766H16.13c-0.082,0-0.152,0.058-0.167,0.138c-0.079,0.458-0.513,0.765-0.971,0.686
	c-0.351-0.06-0.625-0.335-0.686-0.686c-0.014-0.08-0.084-0.139-0.166-0.138h-4.134c-0.094,0-0.169,0.076-0.169,0.169l0,0
	l2.472,11.517c0,0.103,0.083,0.186,0.185,0.186h4.104c0.089,0,0.166-0.064,0.183-0.152c0.084-0.456,0.521-0.758,0.979-0.674
	c0.342,0.063,0.61,0.332,0.674,0.674c0.016,0.088,0.092,0.152,0.182,0.152h4.111c0.104,0,0.186-0.083,0.186-0.186L20.44,8.935
	C20.44,8.841,20.365,8.766,20.271,8.766z"/>
<path fill="#FFFFFF" d="M20.271,8.766H16.13c-0.082,0-0.152,0.058-0.167,0.138c-0.079,0.458-0.513,0.765-0.971,0.686
	c-0.351-0.06-0.625-0.335-0.686-0.686c-0.014-0.08-0.084-0.139-0.166-0.138h-4.134c-0.094,0-0.169,0.076-0.169,0.169l0,0v14.114
	c0,0.103,0.083,0.186,0.186,0.186h4.104c0.089,0,0.166-0.064,0.182-0.152c0.084-0.456,0.522-0.758,0.979-0.674
	c0.343,0.063,0.611,0.332,0.674,0.674c0.016,0.088,0.092,0.152,0.182,0.152h4.112c0.103,0,0.186-0.083,0.186-0.186V8.935
	C20.441,8.841,20.365,8.766,20.271,8.766L20.271,8.766z"/>
<path fill="#1ABC9C" d="M11.529,17.83h7.317c0.094,0,0.17-0.076,0.17-0.17c0-0.025-0.006-0.051-0.018-0.074l-1.799-3.639
	c-0.042-0.083-0.144-0.118-0.227-0.077c-0.006,0.003-0.013,0.007-0.018,0.01l-5.519,3.639c-0.078,0.052-0.099,0.156-0.048,0.234
	C11.419,17.801,11.472,17.83,11.529,17.83z"/>
<path fill="#1ABC9C" d="M11.435,17.83h7.42c0.094,0,0.169-0.076,0.168-0.17c0-0.049-0.02-0.094-0.057-0.126l-4.98-4.406
	c-0.07-0.062-0.177-0.055-0.239,0.015c-0.008,0.009-0.015,0.019-0.021,0.03l-2.439,4.406c-0.045,0.082-0.016,0.186,0.066,0.23
	C11.378,17.822,11.407,17.83,11.435,17.83z"/>
</svg>
