<?xml version="1.0" encoding="utf-8"?>
<!-- Generator: Adobe Illustrator 16.0.0, SVG Export Plug-In . SVG Version: 6.00 Build 0)  -->
<!DOCTYPE svg PUBLIC "-//W3C//DTD SVG 1.1//EN" "http://www.w3.org/Graphics/SVG/1.1/DTD/svg11.dtd">
<svg version="1.1" id="图层_1" xmlns="http://www.w3.org/2000/svg" xmlns:xlink="http://www.w3.org/1999/xlink" x="0px" y="0px"
	 width="48px" height="48px" viewBox="0 0 48 48" enable-background="new 0 0 48 48" xml:space="preserve">
<path fill="#1ABC9C" d="M3,24.094c0,11.598,9.402,21,21,21c11.598,0,21-9.402,21-21c0-11.598-9.402-21-21-21
	C12.402,3.094,3,12.496,3,24.094z"/>
<path fill="#FFFFFF" d="M30.408,13.148h-6.213c-0.123-0.001-0.228,0.087-0.249,0.208c-0.118,0.686-0.77,1.146-1.456,1.028
	c-0.526-0.09-0.938-0.502-1.028-1.028c-0.021-0.121-0.127-0.208-0.25-0.208h-6.202c-0.14,0-0.253,0.114-0.253,0.253l0,0
	l3.707,17.275c0,0.153,0.125,0.278,0.278,0.278h6.156c0.134,0,0.248-0.096,0.272-0.229c0.126-0.684,0.783-1.137,1.468-1.011
	c0.515,0.095,0.917,0.497,1.012,1.011c0.023,0.133,0.139,0.229,0.272,0.229h6.168c0.153,0,0.278-0.125,0.278-0.278l-3.708-17.275
	C30.661,13.262,30.548,13.149,30.408,13.148z"/>
<path fill="#FFFFFF" d="M30.408,13.148h-6.213c-0.123-0.001-0.228,0.087-0.249,0.208c-0.118,0.686-0.77,1.146-1.456,1.028
	c-0.526-0.09-0.938-0.502-1.028-1.028c-0.021-0.121-0.127-0.208-0.25-0.208h-6.202c-0.14,0-0.253,0.114-0.253,0.253l0,0v21.172
	c0,0.152,0.125,0.277,0.278,0.277h6.156c0.134,0,0.249-0.096,0.272-0.229c0.126-0.684,0.784-1.137,1.468-1.011
	c0.514,0.095,0.917,0.497,1.011,1.011c0.024,0.133,0.139,0.229,0.273,0.229h6.167c0.153,0,0.278-0.125,0.278-0.277V13.402
	C30.662,13.262,30.549,13.148,30.408,13.148L30.408,13.148z"/>
<path fill="#1ABC9C" d="M17.293,26.744H28.27c0.141,0,0.254-0.113,0.254-0.254c0-0.038-0.01-0.076-0.027-0.111l-2.697-5.458
	c-0.063-0.125-0.215-0.177-0.34-0.115c-0.01,0.004-0.02,0.01-0.027,0.015l-8.278,5.458c-0.117,0.078-0.148,0.234-0.071,0.352
	C17.129,26.701,17.208,26.744,17.293,26.744z"/>
<path fill="#1ABC9C" d="M17.152,26.744h11.131c0.14,0,0.254-0.113,0.253-0.254c0-0.072-0.031-0.141-0.085-0.189l-7.472-6.609
	c-0.105-0.093-0.265-0.083-0.358,0.022c-0.012,0.014-0.023,0.029-0.032,0.045l-3.659,6.609c-0.068,0.122-0.023,0.276,0.099,0.345
	C17.068,26.733,17.11,26.744,17.152,26.744z"/>
</svg>
