<?xml version="1.0" encoding="utf-8"?>
<!-- Generator: Adobe Illustrator 16.0.0, SVG Export Plug-In . SVG Version: 6.00 Build 0)  -->
<!DOCTYPE svg PUBLIC "-//W3C//DTD SVG 1.1//EN" "http://www.w3.org/Graphics/SVG/1.1/DTD/svg11.dtd">
<svg version="1.1" id="图层_1" xmlns="http://www.w3.org/2000/svg" xmlns:xlink="http://www.w3.org/1999/xlink" x="0px" y="0px"
	 width="64px" height="64px" viewBox="0 0 64 64" enable-background="new 0 0 64 64" xml:space="preserve">
<path fill="#1ABC9C" d="M4,32.125c0,15.464,12.536,28,28,28s28-12.536,28-28s-12.536-28-28-28S4,16.661,4,32.125z"/>
<path fill="#FFFFFF" d="M40.544,17.531h-8.283c-0.164-0.001-0.304,0.116-0.333,0.277c-0.158,0.915-1.027,1.528-1.941,1.371
	c-0.701-0.121-1.25-0.67-1.371-1.371c-0.028-0.161-0.169-0.278-0.333-0.277h-8.269c-0.187,0-0.338,0.151-0.338,0.338l0,0
	l4.942,23.033c0,0.205,0.166,0.371,0.371,0.371h8.208c0.18,0,0.332-0.128,0.363-0.305c0.169-0.912,1.045-1.516,1.958-1.348
	c0.686,0.127,1.222,0.662,1.349,1.348c0.031,0.177,0.185,0.305,0.363,0.305h8.225c0.204,0,0.37-0.166,0.37-0.371L40.881,17.87
	C40.881,17.683,40.73,17.532,40.544,17.531z"/>
<path fill="#FFFFFF" d="M40.544,17.531h-8.283c-0.164-0.001-0.304,0.116-0.333,0.277c-0.158,0.915-1.027,1.528-1.941,1.371
	c-0.701-0.121-1.25-0.67-1.371-1.371c-0.028-0.161-0.169-0.278-0.333-0.277h-8.269c-0.187,0-0.338,0.151-0.338,0.338l0,0v28.228
	c0,0.205,0.166,0.371,0.371,0.371h8.208c0.179,0,0.332-0.128,0.364-0.304c0.168-0.913,1.044-1.517,1.958-1.349
	c0.686,0.127,1.222,0.663,1.348,1.349c0.032,0.176,0.185,0.304,0.364,0.304h8.224c0.205,0,0.371-0.166,0.371-0.371V17.87
	C40.883,17.683,40.73,17.531,40.544,17.531C40.544,17.531,40.544,17.531,40.544,17.531z"/>
<path fill="#1ABC9C" d="M23.058,35.659h14.635c0.187,0,0.339-0.151,0.338-0.339c0-0.051-0.012-0.102-0.034-0.148l-3.599-7.277
	c-0.083-0.167-0.286-0.236-0.453-0.153c-0.013,0.006-0.024,0.013-0.036,0.021l-11.036,7.277c-0.156,0.104-0.198,0.313-0.095,0.469
	C22.839,35.602,22.944,35.659,23.058,35.659z"/>
<path fill="#1ABC9C" d="M22.87,35.659h14.841c0.187,0,0.338-0.151,0.338-0.339c0-0.096-0.042-0.188-0.114-0.252l-9.962-8.813
	c-0.14-0.124-0.354-0.11-0.478,0.03c-0.016,0.019-0.03,0.039-0.042,0.06l-4.878,8.813c-0.091,0.162-0.032,0.369,0.132,0.459
	C22.757,35.645,22.813,35.659,22.87,35.659z"/>
</svg>
