<?xml version="1.0" encoding="utf-8"?>
<!-- Generator: Adobe Illustrator 16.0.0, SVG Export Plug-In . SVG Version: 6.00 Build 0)  -->
<!DOCTYPE svg PUBLIC "-//W3C//DTD SVG 1.1//EN" "http://www.w3.org/Graphics/SVG/1.1/DTD/svg11.dtd">
<svg version="1.1" id="图层_1" xmlns="http://www.w3.org/2000/svg" xmlns:xlink="http://www.w3.org/1999/xlink" x="0px" y="0px"
	 width="64px" height="64px" viewBox="0 0 64 64" enable-background="new 0 0 64 64" xml:space="preserve">
<path fill="#1ABC9C" d="M4,32.125c0,15.464,12.536,28,28,28s28-12.536,28-28s-12.536-28-28-28S4,16.661,4,32.125z"/>
<path fill="#FFFFFF" d="M14.344,42.76h35.598c0.224,0,0.404-0.182,0.404-0.404c0-0.063-0.015-0.123-0.042-0.179l-8.75-17.701
	c-0.099-0.2-0.341-0.281-0.541-0.183c-0.015,0.007-0.028,0.016-0.042,0.024L14.122,42.019c-0.186,0.123-0.237,0.374-0.115,0.56
	C14.082,42.691,14.208,42.76,14.344,42.76z"/>
<path fill="#FFFFFF" d="M14.058,42.76h35.85c0.223,0,0.404-0.182,0.404-0.404c0-0.116-0.051-0.227-0.139-0.304l-24.482-21.46
	c-0.167-0.148-0.422-0.132-0.57,0.035c-0.021,0.024-0.04,0.051-0.055,0.08L13.702,42.167c-0.104,0.196-0.029,0.441,0.168,0.546
	C13.928,42.743,13.993,42.76,14.058,42.76z"/>
<path fill="#FFFFFF" d="M33.784,20.208c0,1.141,0.925,2.065,2.065,2.065s2.064-0.925,2.064-2.065l0,0
	c0-1.14-0.924-2.065-2.064-2.065S33.784,19.068,33.784,20.208z"/>
</svg>
