<?xml version="1.0" encoding="utf-8"?>
<!-- Generator: Adobe Illustrator 16.0.0, SVG Export Plug-In . SVG Version: 6.00 Build 0)  -->
<!DOCTYPE svg PUBLIC "-//W3C//DTD SVG 1.1//EN" "http://www.w3.org/Graphics/SVG/1.1/DTD/svg11.dtd">
<svg version="1.1" id="图层_1" xmlns="http://www.w3.org/2000/svg" xmlns:xlink="http://www.w3.org/1999/xlink" x="0px" y="0px"
	 width="32px" height="32px" viewBox="0 0 32 32" enable-background="new 0 0 32 32" xml:space="preserve">
<path fill="#1ABC9C" d="M2,16.063c0,7.732,6.268,14,14,14c7.732,0,14-6.268,14-14c0-7.732-6.268-14-14-14
	C8.268,2.063,2,8.331,2,16.063z"/>
<path fill="#FFFFFF" d="M7.172,21.38h17.799c0.111-0.001,0.202-0.091,0.202-0.202c0-0.031-0.007-0.062-0.021-0.09l-4.375-8.85
	c-0.05-0.1-0.171-0.141-0.271-0.091c-0.007,0.003-0.014,0.008-0.021,0.012L7.061,21.01c-0.093,0.061-0.119,0.186-0.057,0.279
	C7.041,21.346,7.104,21.379,7.172,21.38z"/>
<path fill="#FFFFFF" d="M7.029,21.38h17.925c0.111,0,0.202-0.091,0.202-0.202c0-0.059-0.025-0.113-0.068-0.152L12.846,10.296
	c-0.083-0.074-0.211-0.066-0.285,0.017c-0.011,0.012-0.02,0.026-0.027,0.04L6.851,21.084c-0.052,0.098-0.015,0.221,0.084,0.272
	C6.964,21.371,6.996,21.379,7.029,21.38z"/>
<path fill="#FFFFFF" d="M16.893,10.104c0,0.57,0.462,1.032,1.032,1.032s1.032-0.462,1.032-1.032l0,0c0-0.57-0.462-1.033-1.032-1.033
	S16.893,9.534,16.893,10.104z"/>
</svg>
