<?xml version="1.0" encoding="utf-8"?>
<!-- Generator: Adobe Illustrator 16.0.0, SVG Export Plug-In . SVG Version: 6.00 Build 0)  -->
<!DOCTYPE svg PUBLIC "-//W3C//DTD SVG 1.1//EN" "http://www.w3.org/Graphics/SVG/1.1/DTD/svg11.dtd">
<svg version="1.1" id="图层_1" xmlns="http://www.w3.org/2000/svg" xmlns:xlink="http://www.w3.org/1999/xlink" x="0px" y="0px"
	 width="48px" height="48px" viewBox="0 0 48 48" enable-background="new 0 0 48 48" xml:space="preserve">
<path fill="#1ABC9C" d="M3,24.094c0,11.598,9.402,21,21,21c11.598,0,21-9.402,21-21c0-11.598-9.402-21-21-21
	C12.402,3.094,3,12.496,3,24.094z"/>
<path fill="#FFFFFF" d="M10.758,32.069h26.699c0.166,0,0.303-0.136,0.303-0.303c0-0.046-0.012-0.093-0.031-0.134l-6.563-13.276
	c-0.074-0.149-0.256-0.211-0.406-0.137c-0.012,0.005-0.021,0.012-0.032,0.019L10.591,31.514c-0.14,0.093-0.178,0.28-0.085,0.42
	C10.562,32.018,10.656,32.069,10.758,32.069z"/>
<path fill="#FFFFFF" d="M10.543,32.069h26.888c0.166,0.001,0.303-0.136,0.303-0.302c0-0.088-0.038-0.172-0.104-0.229L19.269,15.444
	c-0.125-0.111-0.317-0.099-0.428,0.026c-0.016,0.019-0.03,0.039-0.041,0.06l-8.523,16.095c-0.078,0.148-0.021,0.331,0.126,0.41
	C10.446,32.057,10.495,32.069,10.543,32.069z"/>
<path fill="#FFFFFF" d="M25.338,15.157c0,0.855,0.693,1.549,1.549,1.549s1.549-0.694,1.549-1.549l0,0
	c0-0.855-0.693-1.549-1.549-1.549S25.338,14.301,25.338,15.157z"/>
</svg>
