<?xml version="1.0" encoding="utf-8"?>
<!-- Generator: Adobe Illustrator 16.0.0, SVG Export Plug-In . SVG Version: 6.00 Build 0)  -->
<!DOCTYPE svg PUBLIC "-//W3C//DTD SVG 1.1//EN" "http://www.w3.org/Graphics/SVG/1.1/DTD/svg11.dtd">
<svg version="1.1" id="图层_1" xmlns="http://www.w3.org/2000/svg" xmlns:xlink="http://www.w3.org/1999/xlink" x="0px" y="0px"
	 width="32px" height="32px" viewBox="0 0 32 32" enable-background="new 0 0 32 32" xml:space="preserve">
<path fill="#1ABC9C" d="M2,16.063c0,7.732,6.268,14,14,14c7.732,0,14-6.268,14-14c0-7.732-6.268-14-14-14
	C8.268,2.063,2,8.331,2,16.063z"/>
<path fill="#FFFFFF" d="M17.953,10.568c0,1.865,1.512,3.376,3.377,3.376c1.864,0,3.376-1.512,3.376-3.376s-1.512-3.376-3.376-3.376
	C19.465,7.192,17.953,8.704,17.953,10.568z"/>
<path fill="#FFFFFF" d="M15.453,15.744h1.008v8.344h-1.008V15.744z"/>
<path fill="#FFFFFF" d="M15.294,17.322l-6.336-6.336c-0.092-0.092-0.092-0.242,0-0.333c0.044-0.044,0.104-0.069,0.167-0.069h13.663
	c0.13,0,0.235,0.105,0.235,0.236c0,0.063-0.023,0.123-0.068,0.167l-6.336,6.336C16.253,17.688,15.66,17.688,15.294,17.322z"/>
<path fill="#FFFFFF" d="M19.546,23.922v1.008h-7.195v-1.008H19.546z"/>
</svg>
