<?xml version="1.0" encoding="utf-8"?>
<!-- Generator: Adobe Illustrator 16.0.0, SVG Export Plug-In . SVG Version: 6.00 Build 0)  -->
<!DOCTYPE svg PUBLIC "-//W3C//DTD SVG 1.1//EN" "http://www.w3.org/Graphics/SVG/1.1/DTD/svg11.dtd">
<svg version="1.1" id="图层_1" xmlns="http://www.w3.org/2000/svg" xmlns:xlink="http://www.w3.org/1999/xlink" x="0px" y="0px"
	 width="64px" height="64px" viewBox="0 0 64 64" enable-background="new 0 0 64 64" xml:space="preserve">
<path fill="#1ABC9C" d="M4,32.125c0,15.464,12.536,28,28,28s28-12.536,28-28s-12.536-28-28-28S4,16.661,4,32.125z"/>
<path fill="#FFFFFF" d="M35.906,21.137c0,3.729,3.023,6.752,6.753,6.752s6.753-3.023,6.753-6.752c0-3.729-3.023-6.752-6.753-6.752
	S35.906,17.408,35.906,21.137z"/>
<path fill="#FFFFFF" d="M30.905,31.487h2.017v16.689h-2.017V31.487z"/>
<path fill="#FFFFFF" d="M30.589,34.645L17.916,21.972c-0.184-0.185-0.183-0.483,0.001-0.667c0.088-0.088,0.208-0.138,0.333-0.138
	h27.326c0.261,0,0.473,0.211,0.473,0.472c0,0.125-0.051,0.245-0.139,0.334L33.237,34.645C32.506,35.375,31.321,35.375,30.589,34.645
	z"/>
<path fill="#FFFFFF" d="M39.092,47.844v2.016H24.703v-2.016H39.092z"/>
</svg>
