<?xml version="1.0" encoding="utf-8"?>
<!-- Generator: Adobe Illustrator 16.0.0, SVG Export Plug-In . SVG Version: 6.00 Build 0)  -->
<!DOCTYPE svg PUBLIC "-//W3C//DTD SVG 1.1//EN" "http://www.w3.org/Graphics/SVG/1.1/DTD/svg11.dtd">
<svg version="1.1" id="图层_1" xmlns="http://www.w3.org/2000/svg" xmlns:xlink="http://www.w3.org/1999/xlink" x="0px" y="0px"
	 width="48px" height="48px" viewBox="0 0 48 48" enable-background="new 0 0 48 48" xml:space="preserve">
<path fill="#1ABC9C" d="M3,24.094c0,11.598,9.402,21,21,21c11.598,0,21-9.402,21-21c0-11.598-9.402-21-21-21
	C12.402,3.094,3,12.496,3,24.094z"/>
<path fill="#FFFFFF" d="M26.93,15.853c0,2.797,2.268,5.064,5.064,5.064s5.064-2.267,5.064-5.064c0-2.797-2.268-5.064-5.064-5.064
	S26.93,13.056,26.93,15.853z"/>
<path fill="#FFFFFF" d="M23.179,23.615h1.513v12.518h-1.513V23.615z"/>
<path fill="#FFFFFF" d="M22.941,25.983l-9.504-9.504c-0.138-0.139-0.138-0.363,0.001-0.5c0.066-0.066,0.156-0.103,0.25-0.104h20.494
	c0.195,0,0.354,0.159,0.354,0.354c0,0.094-0.037,0.184-0.104,0.25l-9.505,9.504C24.379,26.531,23.491,26.531,22.941,25.983z"/>
<path fill="#FFFFFF" d="M29.318,35.883v1.512H18.527v-1.512H29.318z"/>
</svg>
