<svg width="780" height="60" xmlns="http://www.w3.org/2000/svg" xmlns:xlink="http://www.w3.org/1999/xlink">
 <metadata id="metadata4258">image/svg+xml</metadata>

 <g>
  <title>background</title>
  <rect fill="none" id="canvas_background" height="62" width="782" y="-1" x="-1"/>
 </g>
 <g>
  <title>Layer 1</title>
  <g fill="#464646" id="enabled">
   <g fill="#464646" id="polyline">
    <path fill="#464646" id="path4229" d="m18,36l0,6l6,0l0,-6l-6,0zm4,4l-2,0l0,-2l2,0l0,2z"/>
    <path fill="#464646" id="path4231" d="m36,18l0,6l6,0l0,-6l-6,0zm4,4l-2,0l0,-2l2,0l0,2z"/>
    <path fill="#464646" id="path4233" d="m23.142,39.145l-2.285,-2.29l16,-15.998l2.285,2.285l-16,16.003z"/>
   </g>
   <path fill="#464646" d="m100,24.565l-2.096,14.83l-14.834,2.605l-7.07,-13.227l10.463,-10.773l13.537,6.565z" id="polygon"/>
   <path fill="#464646" d="m140,20l20,0l0,20l-20,0l0,-20z" id="rectangle"/>
   <path fill="#464646" d="m221,30c0,6.078 -4.926,11 -11,11c-6.074,0 -11,-4.922 -11,-11c0,-6.074 4.926,-11 11,-11c6.074,0 11,4.926 11,11z" id="circle"/>
   <path fill="#464646" d="m270,19c-4.971,0 -9,4.029 -9,9c0,4.971 5.001,12 9,14c4.001,-2 9,-9.029 9,-14c0,-4.971 -4.029,-9 -9,-9zm0,12.5c-2.484,0 -4.5,-2.014 -4.5,-4.5c0,-2.484 2.016,-4.5 4.5,-4.5c2.485,0 4.5,2.016 4.5,4.5c0,2.486 -2.015,4.5 -4.5,4.5z" id="marker"/>
   <path fill="#464646" d="m140,20l20,0l0,20l-20,0l0,-20z" id="arrow"/>
   <g fill="#464646" id="edit">
    <path fill="#464646" id="path4240" d="m337,30.156l0,0.407l0,5.604c0,1.658 -1.344,3 -3,3l-10,0c-1.655,0 -3,-1.342 -3,-3l0,-10c0,-1.657 1.345,-3 3,-3l6.345,0l3.19,-3.17l-9.535,0c-3.313,0 -6,2.687 -6,6l0,10c0,3.313 2.687,6 6,6l10,0c3.314,0 6,-2.687 6,-6l0,-8.809l-3,2.968"/>
    <path fill="#464646" id="path4242" d="m338.72,24.637l-8.892,8.892l-2.828,0l0,-2.829l8.89,-8.89l2.83,2.827z"/>
    <path fill="#464646" id="path4244" d="m340.713112,22.643304l-2.827933,-2.828921l2.828921,-2.827933l2.827933,2.828921l-2.828921,2.827933z"/>
   </g>
   <g fill="#464646" id="remove">
    <path fill="#464646" id="path4247" d="m381,42l18,0l0,-18l-18,0l0,18zm14,-16l2,0l0,14l-2,0l0,-14zm-4,0l2,0l0,14l-2,0l0,-14zm-4,0l2,0l0,14l-2,0l0,-14zm-4,0l2,0l0,14l-2,0l0,-14z"/>
    <path fill="#464646" id="path4249" d="m395,20l0,-4l-10,0l0,4l-6,0l0,2l22,0l0,-2l-6,0zm-2,0l-6,0l0,-2l6,0l0,2z"/>
   </g>
  </g>
  <g fill="#bbbbbb" id="disabled">
   <use height="100%" width="100%" y="0" x="120" id="edit-disabled" xlink:href="#edit"/>
   <use height="100%" width="100%" y="0" x="120" id="remove-disabled" xlink:href="#remove"/>
  </g>
  <path fill="none" stroke="#464646" stroke-width="2" stroke-miterlimit="4" d="m581.65725,30c0,6.078 -4.926,11 -11,11c-6.074,0 -11,-4.922 -11,-11c0,-6.074 4.926,-11 11,-11c6.074,0 11,4.926 11,11z" id="circle-3"/>
  <path stroke="#464646" id="svg_1" d="m612.49805,29.614228l13.5,-10.973598l13.5,10.973598l-6.750001,0l0,11.026401l-13.499999,0l0,-11.026401l-6.750001,0z" fill-opacity="null" stroke-width="2" fill="none"/>
  <path stroke="#464646" id="svg_2" d="m682.358083,21.814694l0,-2.56635l-10.135811,7.948855l10.135811,7.948925l0,-2.753738c2.750408,-0.001747 7.578944,0.317515 7.578944,2.580228c0,3.161535 -5.042837,4.84812 -5.042837,4.84812l0,2.424033c0,0 11.32809,0.525743 11.32809,-11.171143c0,-9.189543 -9.702085,-9.534861 -13.864197,-9.25893z" fill-opacity="null" stroke-width="2" fill="none"/>
  <path id="svg_3" d="m733.00003,30.443028c0.026021,-3.111663 -0.01665,-6.227486 0.213988,-9.333677c5.6672,1.021801 11.26756,2.69372 16.839263,4.197262c0.299113,-1.525774 0.158328,-2.791422 0.418213,-4.202107c3.579495,2.96847 7.126713,5.979211 10.528552,9.133322c-3.263734,3.577848 -7.007356,6.684961 -10.682588,9.866679c-0.119012,-1.481679 -0.238046,-2.963348 -0.35706,-4.445027c-5.416752,1.433456 -11.145148,2.91551 -16.596922,4.225964c-0.370747,-3.023818 -0.35985,-6.316844 -0.363446,-9.442415z" fill-opacity="null" stroke-width="2" stroke="#464646" fill="none"/>
 </g>
</svg>