<?xml version="1.0" encoding="UTF-8" standalone="no"?>
<svg
	xmlns:dc="http://purl.org/dc/elements/1.1/"
	xmlns:cc="http://creativecommons.org/ns#"
	xmlns:rdf="http://www.w3.org/1999/02/22-rdf-syntax-ns#"
	xmlns="http://www.w3.org/2000/svg"
	xmlns:xlink="http://www.w3.org/1999/xlink"
	xmlns:sodipodi="http://sodipodi.sourceforge.net/DTD/sodipodi-0.dtd"
	xmlns:inkscape="http://www.inkscape.org/namespaces/inkscape"
	viewBox="0 0 600 60"
	height="60"
	width="600"
	id="svg4225"
	version="1.1"
	inkscape:version="0.91 r13725"
	sodipodi:docname="spritesheet.svg"
	inkscape:export-filename="/home/fpuga/development/upstream/icarto.Leaflet.draw/src/images/spritesheet-2x.png"
	inkscape:export-xdpi="90"
	inkscape:export-ydpi="90">
	<metadata
		id="metadata4258">
		<rdf:RDF>
			<cc:Work
				rdf:about="">
				<dc:format>image/svg+xml</dc:format>
				<dc:type
					rdf:resource="http://purl.org/dc/dcmitype/StillImage"/>
				<dc:title/>
			</cc:Work>
		</rdf:RDF>
	</metadata>
	<defs
		id="defs4256"/>
	<sodipodi:namedview
		pagecolor="#ffffff"
		bordercolor="#666666"
		borderopacity="1"
		objecttolerance="10"
		gridtolerance="10"
		guidetolerance="10"
		inkscape:pageopacity="0"
		inkscape:pageshadow="2"
		inkscape:window-width="1920"
		inkscape:window-height="1056"
		id="namedview4254"
		showgrid="false"
		inkscape:zoom="1.3101852"
		inkscape:cx="237.56928"
		inkscape:cy="7.2419621"
		inkscape:window-x="1920"
		inkscape:window-y="24"
		inkscape:window-maximized="1"
		inkscape:current-layer="svg4225"/>
	<g
		id="enabled"
		style="fill:#464646;fill-opacity:1">
		<g
			id="polyline"
			style="fill:#464646;fill-opacity:1">
			<path
				d="m 18,36 0,6 6,0 0,-6 -6,0 z m 4,4 -2,0 0,-2 2,0 0,2 z"
				id="path4229"
				inkscape:connector-curvature="0"
				style="fill:#464646;fill-opacity:1"/>
			<path
				d="m 36,18 0,6 6,0 0,-6 -6,0 z m 4,4 -2,0 0,-2 2,0 0,2 z"
				id="path4231"
				inkscape:connector-curvature="0"
				style="fill:#464646;fill-opacity:1"/>
			<path
				d="m 23.142,39.145 -2.285,-2.29 16,-15.998 2.285,2.285 z"
				id="path4233"
				inkscape:connector-curvature="0"
				style="fill:#464646;fill-opacity:1"/>
		</g>
		<path
			id="polygon"
			d="M 100,24.565 97.904,39.395 83.07,42 76,28.773 86.463,18 Z"
			inkscape:connector-curvature="0"
			style="fill:#464646;fill-opacity:1"/>
		<path
			id="rectangle"
			d="m 140,20 20,0 0,20 -20,0 z"
			inkscape:connector-curvature="0"
			style="fill:#464646;fill-opacity:1"/>
		<path
			id="circle"
			d="m 221,30 c 0,6.078 -4.926,11 -11,11 -6.074,0 -11,-4.922 -11,-11 0,-6.074 4.926,-11 11,-11 6.074,0 11,4.926 11,11 z"
			inkscape:connector-curvature="0"
			style="fill:#464646;fill-opacity:1"/>
		<path
			id="marker"
			d="m 270,19 c -4.971,0 -9,4.029 -9,9 0,4.971 5.001,12 9,14 4.001,-2 9,-9.029 9,-14 0,-4.971 -4.029,-9 -9,-9 z m 0,12.5 c -2.484,0 -4.5,-2.014 -4.5,-4.5 0,-2.484 2.016,-4.5 4.5,-4.5 2.485,0 4.5,2.016 4.5,4.5 0,2.486 -2.015,4.5 -4.5,4.5 z"
			inkscape:connector-curvature="0"
			style="fill:#464646;fill-opacity:1"/>
		<path
			id="arrow"
			d="m 140,20 20,0 0,20 -20,0 z"
			inkscape:connector-curvature="0"
			style="fill:#464646;fill-opacity:1"/>
		<g
			id="edit"
			style="fill:#464646;fill-opacity:1">
			<path
				d="m 337,30.156 0,0.407 0,5.604 c 0,1.658 -1.344,3 -3,3 l -10,0 c -1.655,0 -3,-1.342 -3,-3 l 0,-10 c 0,-1.657 1.345,-3 3,-3 l 6.345,0 3.19,-3.17 -9.535,0 c -3.313,0 -6,2.687 -6,6 l 0,10 c 0,3.313 2.687,6 6,6 l 10,0 c 3.314,0 6,-2.687 6,-6 l 0,-8.809 -3,2.968"
				id="path4240"
				inkscape:connector-curvature="0"
				style="fill:#464646;fill-opacity:1"/>
			<path
				d="m 338.72,24.637 -8.892,8.892 -2.828,0 0,-2.829 8.89,-8.89 z"
				id="path4242"
				inkscape:connector-curvature="0"
				style="fill:#464646;fill-opacity:1"/>
			<path
				d="m 338.697,17.826 4,0 0,4 -4,0 z"
				transform="matrix(-0.70698336,-0.70723018,0.70723018,-0.70698336,567.55917,274.78273)"
				id="path4244"
				inkscape:connector-curvature="0"
				style="fill:#464646;fill-opacity:1"/>
		</g>
		<g
			id="remove"
			style="fill:#464646;fill-opacity:1">
			<path
				d="m 381,42 18,0 0,-18 -18,0 0,18 z m 14,-16 2,0 0,14 -2,0 0,-14 z m -4,0 2,0 0,14 -2,0 0,-14 z m -4,0 2,0 0,14 -2,0 0,-14 z m -4,0 2,0 0,14 -2,0 0,-14 z"
				id="path4247"
				inkscape:connector-curvature="0"
				style="fill:#464646;fill-opacity:1"/>
			<path
				d="m 395,20 0,-4 -10,0 0,4 -6,0 0,2 22,0 0,-2 -6,0 z m -2,0 -6,0 0,-2 6,0 0,2 z"
				id="path4249"
				inkscape:connector-curvature="0"
				style="fill:#464646;fill-opacity:1"/>
		</g>
	</g>
	<g
		id="disabled"
		transform="translate(120,0)"
		style="fill:#bbbbbb">
		<use
			xlink:href="#edit"
			id="edit-disabled"
			x="0"
			y="0"
			width="100%"
			height="100%"/>
		<use
			xlink:href="#remove"
			id="remove-disabled"
			x="0"
			y="0"
			width="100%"
			height="100%"/>
	</g>
	<path
		style="fill:none;stroke:#464646;stroke-width:2;stroke-miterlimit:4;stroke-dasharray:none;stroke-opacity:1"
		id="circle-3"
		d="m 581.65725,30 c 0,6.078 -4.926,11 -11,11 -6.074,0 -11,-4.922 -11,-11 0,-6.074 4.926,-11 11,-11 6.074,0 11,4.926 11,11 z"
		inkscape:connector-curvature="0"/>
	<path 
		style="fill:none;stroke:#464646;stroke-width:2;stroke-miterlimit:4;stroke-dasharray:none;stroke-opacity:1"
		id="arrow1"
		d="m612.49805,29.614228l13.5,-10.973598l13.5,10.973598l-6.750001,0l0,11.026401l-13.499999,0l0,-11.026401l-6.750001,0z"
		inkscape:connector-curvature="0"/>
  	<path 
		style="fill:none;stroke:#464646;stroke-width:2;stroke-miterlimit:4;stroke-dasharray:none;stroke-opacity:1"
		id="arrow2"
		d="m682.358083,21.814694l0,-2.56635l-10.135811,7.948855l10.135811,7.948925l0,-2.753738c2.750408,-0.001747 7.578944,0.317515 7.578944,2.580228c0,3.161535 -5.042837,4.84812 -5.042837,4.84812l0,2.424033c0,0 11.32809,0.525743 11.32809,-11.171143c0,-9.189543 -9.702085,-9.534861 -13.864197,-9.25893z"
		inkscape:connector-curvature="0"/>
	<path 
		style="fill:none;stroke:#464646;stroke-width:2;stroke-miterlimit:4;stroke-dasharray:none;stroke-opacity:1"
		id="arrow3"
		d="m733.00003,30.443028c0.026021,-3.111663 -0.01665,-6.227486 0.213988,-9.333677c5.6672,1.021801 11.26756,2.69372 16.839263,4.197262c0.299113,-1.525774 0.158328,-2.791422 0.418213,-4.202107c3.579495,2.96847 7.126713,5.979211 10.528552,9.133322c-3.263734,3.577848 -7.007356,6.684961 -10.682588,9.866679c-0.119012,-1.481679 -0.238046,-2.963348 -0.35706,-4.445027c-5.416752,1.433456 -11.145148,2.91551 -16.596922,4.225964c-0.370747,-3.023818 -0.35985,-6.316844 -0.363446,-9.442415z"
		inkscape:connector-curvature="0"/>
</svg>
